<?xml version="1.0" standalone="no"?>
<!DOCTYPE svg PUBLIC "-//W3C//DTD SVG 20010904//EN"
 "http://www.w3.org/TR/2001/REC-SVG-20010904/DTD/svg10.dtd">
<svg version="1.0" xmlns="http://www.w3.org/2000/svg"
 width="256.000000pt" height="256.000000pt" viewBox="0 0 256.000000 256.000000"
 preserveAspectRatio="xMidYMid meet">

<g transform="translate(0.000000,256.000000) scale(0.100000,-0.100000)"
fill="#000000" stroke="none">
<path d="M0 2395 c0 -183 -3 -176 67 -156 19 5 62 5 109 -1 44 -5 90 -9 103
-9 13 1 29 -3 35 -7 6 -5 24 -9 39 -10 37 -2 94 -29 101 -48 6 -15 36 -20 36
-5 0 5 8 8 18 6 10 -1 16 -9 14 -21 -2 -13 0 -15 6 -7 6 10 18 6 46 -13 31
-22 40 -24 48 -13 8 11 9 10 4 -4 -4 -12 2 -20 19 -27 14 -5 25 -14 25 -19 0
-6 6 -8 14 -5 14 5 46 -20 46 -38 0 -7 5 -7 13 -1 19 14 80 7 93 -11 6 -9 18
-16 26 -16 7 0 33 -18 57 -40 23 -22 46 -40 50 -40 4 0 6 -13 5 -30 -1 -17 3
-30 9 -30 8 0 7 -3 -1 -9 -11 -7 -11 -9 2 -14 9 -4 16 -13 16 -22 0 -8 5 -14
11 -12 20 4 17 -46 -4 -63 -16 -14 -17 -17 -4 -17 9 0 13 5 10 10 -3 5 0 7 8
5 8 -3 14 -12 14 -21 0 -8 3 -19 7 -23 4 -3 3 -15 -3 -25 -9 -18 -2 -24 24
-20 5 1 5 -4 1 -10 -5 -8 -2 -10 7 -7 8 3 23 0 32 -7 15 -10 15 -14 3 -18 -8
-3 -22 1 -33 8 -10 8 -22 15 -26 15 -9 0 -5 -40 6 -57 6 -9 3 -11 -9 -6 -12 4
-15 3 -10 -5 4 -7 3 -12 -3 -12 -5 0 -12 6 -14 13 -4 8 -6 8 -6 0 -1 -6 14
-20 32 -32 17 -11 27 -21 20 -21 -6 0 -15 5 -18 10 -3 6 -12 10 -18 10 -7 0 6
-12 28 -28 22 -15 41 -33 42 -39 4 -16 1 -16 -31 -3 -14 5 -26 7 -26 5 0 -8
80 -43 113 -50 31 -7 31 -6 12 10 -20 16 -20 16 3 5 12 -6 20 -15 17 -20 -3
-4 1 -10 7 -13 10 -4 10 -7 1 -18 -11 -10 -19 -10 -45 4 -31 17 -17 18 27 2
14 -4 12 -1 -5 9 -15 9 -36 13 -52 10 -16 -3 -42 3 -67 15 -24 13 -42 17 -46
11 -3 -6 2 -10 12 -11 16 0 16 -1 -1 -8 -19 -7 -19 -8 -1 -15 10 -3 21 -2 24
3 4 6 22 2 46 -9 22 -10 34 -19 27 -19 -7 -1 -11 -5 -8 -9 2 -4 1 -14 -4 -22
-8 -13 -14 -13 -42 -2 -59 24 -64 24 -65 3 -1 -15 8 -24 33 -33 19 -6 34 -16
34 -21 0 -4 -4 -5 -10 -2 -5 3 -10 1 -10 -4 0 -6 7 -11 15 -11 8 0 15 5 15 10
0 6 10 10 23 11 17 1 16 3 -9 10 -48 14 -87 36 -75 43 5 4 12 2 15 -3 4 -5 39
-19 79 -31 39 -13 77 -27 82 -33 7 -7 4 -8 -10 -2 -47 18 -55 18 -49 1 4 -12
2 -15 -9 -11 -9 4 -16 -1 -20 -14 -3 -14 0 -21 9 -21 8 0 11 6 8 15 -5 13 -1
13 27 3 26 -9 30 -13 15 -16 -15 -3 -16 -6 -5 -12 25 -16 5 -17 -45 -2 -34 10
-45 17 -35 22 11 7 9 10 -6 15 -11 4 -33 13 -50 21 -27 13 -27 14 -5 10 24 -5
24 -4 5 10 -15 11 -21 12 -26 2 -14 -25 -14 -33 1 -34 34 -2 61 -17 56 -30 -3
-8 -2 -14 2 -15 42 -4 112 -32 112 -45 0 -3 -6 -2 -12 2 -10 6 -10 4 0 -8 11
-14 10 -17 -5 -21 -17 -4 -17 -5 0 -6 18 -1 25 -21 6 -21 -5 0 -7 -5 -3 -11 4
-8 -4 -9 -27 -5 -33 6 -33 5 -7 -5 16 -6 28 -15 28 -20 0 -11 -7 -11 -28 0
-39 19 -70 21 -76 4 -4 -9 -1 -20 6 -25 10 -6 8 -8 -4 -8 -24 0 -23 -15 1 -17
19 -2 22 11 8 33 -11 18 2 23 36 13 34 -10 59 -29 38 -29 -11 0 -11 -3 -1 -15
15 -18 11 -18 -27 -5 -26 9 -27 9 -9 -5 11 -8 23 -15 28 -15 4 0 3 -11 -2 -25
-9 -24 -6 -30 15 -25 6 1 1 -7 -10 -18 -11 -10 -29 -17 -40 -15 -17 3 -17 2 2
-6 20 -9 21 -13 10 -41 -10 -26 -16 -30 -37 -25 -22 6 -23 5 -8 -7 21 -16 14
-70 -8 -61 -8 3 -11 9 -8 15 3 5 -3 4 -14 -3 -24 -15 -20 -23 8 -24 11 0 20
-3 20 -7 0 -32 -2 -38 -15 -38 -17 0 -37 -34 -27 -45 4 -5 1 -5 -6 -1 -7 4
-21 4 -33 1 l-20 -7 21 -18 21 -18 -26 2 c-14 0 -25 5 -25 10 0 6 -5 5 -12 -2
-7 -7 -17 -12 -23 -12 -5 0 0 8 13 18 20 16 21 21 11 50 -6 18 -13 31 -15 29
-3 -2 0 -16 5 -31 6 -14 9 -26 8 -26 -1 0 -15 14 -30 30 -16 17 -22 27 -13 24
12 -5 15 -2 10 9 -4 12 -1 15 14 12 19 -3 25 15 9 31 -10 10 -58 13 -51 3 3
-5 -6 -9 -20 -9 -14 0 -26 -3 -27 -7 0 -5 -2 -15 -4 -24 -2 -12 3 -15 23 -11
l26 5 -28 -26 c-16 -15 -35 -27 -42 -27 -8 0 -15 -4 -15 -10 -1 -5 -2 -16 -3
-22 0 -7 -11 -14 -24 -14 -18 -1 -21 3 -17 17 8 23 -10 25 -19 3 -4 -9 -13
-14 -21 -10 -8 3 -15 0 -16 -7 0 -7 -5 -1 -10 13 -7 18 -12 21 -18 12 -7 -11
-11 -11 -23 1 -18 18 -48 24 -65 14 -8 -5 -13 -3 -13 3 0 7 -7 9 -16 6 -12 -5
-15 -2 -10 9 3 9 2 13 -4 10 -6 -3 -10 2 -10 11 0 15 -2 16 -12 5 -10 -11 -10
-14 0 -18 6 -3 12 -9 12 -13 0 -10 -42 -9 -50 1 -9 12 -50 21 -50 10 0 -7 -8
-7 -26 -1 -23 9 -25 8 -20 -7 5 -15 4 -15 -9 1 -8 11 -15 24 -15 29 0 4 -4 5
-10 2 -5 -3 -10 1 -10 9 0 11 -8 14 -32 11 -19 -2 -36 1 -40 8 -6 9 -8 9 -8
-1 0 -9 -7 -11 -20 -7 -11 3 -20 4 -20 1 0 -5 80 -30 91 -28 3 0 18 -11 35
-24 16 -14 22 -22 14 -18 -8 4 -1 -8 15 -27 17 -18 22 -27 12 -20 -15 12 -17
12 -12 -1 8 -20 -32 -68 -56 -68 -10 0 -19 -5 -19 -11 0 -7 -9 -9 -21 -6 -17
5 -20 2 -16 -13 3 -13 1 -17 -10 -13 -8 3 -12 12 -9 19 3 7 1 16 -4 19 -6 4
-10 0 -11 -7 0 -7 -4 -3 -10 10 -6 17 -4 32 7 54 12 24 13 33 3 42 -9 8 -11 7
-6 -6 4 -10 2 -18 -4 -18 -6 0 -8 -4 -5 -9 3 -5 -2 -15 -12 -22 -9 -7 -14 -9
-10 -5 4 5 3 15 -3 23 -6 7 -8 13 -5 13 4 0 1 10 -5 23 -11 20 -11 21 5 8 14
-12 16 -12 10 2 -8 23 -27 27 -49 11 -17 -12 -17 -14 -2 -14 9 0 17 -5 17 -10
0 -6 -5 -9 -11 -8 -6 2 -14 -3 -16 -11 -4 -9 1 -12 18 -7 19 4 18 3 -3 -6 -16
-7 -28 -20 -28 -29 0 -22 -16 -33 -24 -17 -3 7 -3 3 -1 -9 3 -12 1 -24 -5 -28
-5 -3 -10 -1 -10 5 0 6 -4 9 -9 5 -5 -3 -12 -1 -16 5 -3 5 -12 10 -18 10 -7 0
-6 -4 3 -10 10 -6 11 -10 3 -10 -10 0 -13 -25 -12 -94 1 -84 3 -94 17 -89 14
4 14 3 3 -5 -16 -12 -24 -42 -11 -42 5 0 16 -3 26 -7 13 -5 16 -3 11 10 -4 11
-1 17 8 17 21 0 18 -18 -5 -32 -23 -15 -27 -33 -5 -24 8 3 15 1 15 -5 0 -6 4
-8 10 -4 5 3 7 12 3 20 -3 8 0 15 7 15 6 0 9 -4 5 -9 -3 -5 0 -15 7 -23 7 -7
14 -20 16 -28 13 -58 14 -70 3 -70 -6 0 -11 -5 -11 -10 0 -6 7 -10 16 -8 10 2
19 -3 21 -9 3 -7 -1 -13 -8 -13 -8 0 -6 -6 5 -19 12 -13 14 -21 6 -26 -6 -4
-2 -13 12 -26 20 -16 21 -20 8 -30 -13 -9 -13 -10 2 -6 9 3 19 0 21 -8 7 -17
491 -22 502 -5 3 5 11 10 16 10 6 0 7 -4 4 -10 -11 -17 7 -11 21 8 13 16 13
16 14 0 0 -17 28 -18 419 -17 351 1 419 4 414 15 -3 8 0 14 7 14 7 0 9 8 5 19
-3 12 0 21 11 25 9 3 14 13 10 21 -3 10 3 17 19 21 28 7 31 14 13 32 -7 7 -9
12 -4 12 4 0 -6 11 -22 25 -17 14 -33 25 -36 25 -4 0 -23 11 -44 24 -36 22
-91 29 -93 11 -1 -5 12 -16 27 -25 51 -27 55 -31 46 -43 -5 -7 -9 -23 -10 -37
-1 -18 1 -21 8 -10 5 8 7 17 4 21 -5 8 27 22 34 14 3 -3 1 -5 -5 -5 -6 0 -13
-9 -16 -19 -3 -14 -1 -18 9 -14 8 3 11 10 7 16 -3 6 -1 7 6 3 6 -4 9 -11 6
-16 -3 -4 1 -11 7 -14 7 -3 4 -4 -7 -3 -15 1 -20 -4 -19 -20 1 -15 -3 -20 -13
-16 -11 4 -11 8 -3 13 8 5 7 9 -3 13 -10 4 -14 0 -12 -11 1 -9 -5 -26 -13 -37
-10 -12 -11 -15 -2 -7 18 16 34 16 23 0 -4 -7 -8 -16 -9 -20 -1 -5 -2 -11 -3
-15 0 -4 -6 -2 -13 5 -7 7 -17 12 -23 12 -5 0 -3 -5 5 -10 12 -7 8 -10 -14
-10 -26 0 -27 2 -15 18 13 15 12 16 -4 3 -15 -12 -20 -12 -36 5 -9 11 -16 26
-14 34 3 11 1 10 -7 -2 -8 -13 -17 -15 -40 -8 -17 5 -28 5 -25 0 2 -4 21 -11
40 -14 21 -4 35 -13 35 -21 0 -8 -5 -15 -11 -15 -5 0 -7 5 -3 12 5 8 2 9 -10
5 -11 -5 -15 -3 -10 5 5 7 2 9 -8 5 -18 -6 -61 20 -53 33 3 4 -2 11 -11 14 -9
4 -14 9 -11 12 3 3 0 20 -7 37 -7 18 -12 41 -11 53 1 11 -4 21 -11 21 -20 0
-26 -28 -10 -41 16 -13 34 -62 19 -53 -6 4 -8 -4 -5 -19 3 -16 10 -23 18 -20
9 3 11 0 7 -11 -5 -13 -12 -10 -37 18 -17 19 -33 33 -37 32 -4 -1 -13 5 -21
15 -11 15 -11 16 2 6 8 -5 21 -9 28 -8 6 1 17 2 22 3 16 2 12 14 -15 44 -14
15 -23 27 -19 27 3 0 3 6 -2 13 -5 7 0 4 10 -8 l19 -20 -8 25 c-4 14 -8 39 -8
56 0 27 -3 31 -20 26 -14 -3 -18 -1 -13 6 4 7 2 12 -3 12 -6 0 -11 -4 -11 -10
0 -10 -59 -3 -72 9 -10 9 85 6 100 -3 6 -4 12 -4 12 0 0 3 8 0 17 -7 14 -12
16 -12 8 0 -6 11 -4 13 10 7 15 -5 16 -4 6 8 -9 11 -9 16 0 22 8 5 9 3 4 -6
-5 -8 -3 -11 6 -8 7 2 20 18 29 34 25 45 54 39 61 -13 6 -51 14 -60 34 -43 12
10 18 10 30 0 8 -7 15 -18 15 -24 0 -6 -7 -3 -14 7 -8 10 -17 14 -20 9 -11
-18 21 -32 65 -27 29 3 52 -1 67 -11 22 -15 23 -15 14 2 -6 11 -31 23 -59 29
-30 7 -47 16 -45 24 1 7 -2 10 -7 7 -17 -11 -22 12 -6 27 8 9 15 20 15 26 0 6
5 11 11 11 5 0 16 15 24 34 8 19 20 38 26 41 5 4 8 14 4 23 -3 8 0 19 6 23 12
7 18 77 18 217 0 79 20 152 41 152 4 0 10 7 13 14 4 10 1 13 -9 9 -10 -4 -12
0 -8 11 4 10 13 15 20 12 11 -4 13 1 8 22 -4 19 -3 23 4 13 8 -11 13 -7 26 18
9 17 14 36 11 41 -3 6 -1 10 5 10 6 0 8 5 4 12 -4 6 -3 8 3 5 5 -3 25 9 43 28
31 32 59 48 45 26 -3 -5 0 -13 7 -17 7 -4 10 -4 6 1 -4 4 0 14 10 22 16 12 15
13 -3 6 -18 -6 -19 -5 -5 13 17 21 99 102 106 103 2 1 7 1 10 1 4 0 0 8 -7 18
-12 15 -11 14 8 -1 12 -11 27 -16 34 -11 8 4 10 3 5 -4 -4 -7 2 -16 16 -21 27
-10 44 -9 40 2 -1 5 3 7 10 4 7 -2 12 -10 10 -17 -2 -7 7 -24 20 -38 18 -20
19 -24 6 -19 -10 4 -18 2 -18 -3 0 -5 12 -13 28 -16 15 -4 46 -16 70 -27 32
-15 40 -22 30 -29 -9 -7 -6 -8 10 -5 12 3 20 1 17 -3 -3 -5 -1 -11 5 -15 5 -3
10 -2 10 3 0 5 14 7 30 4 17 -2 30 -7 30 -11 0 -4 18 -17 40 -30 38 -21 43
-33 30 -71 -1 -3 -1 -20 0 -39 1 -23 -2 -31 -10 -26 -9 6 -10 -1 -5 -26 4 -19
10 -36 14 -39 3 -3 7 -17 8 -32 2 -28 -10 -37 -22 -18 -9 15 -25 2 -25 -20 0
-28 21 -36 37 -14 14 18 14 18 11 -6 -2 -14 -7 -28 -11 -31 -5 -4 -10 -18 -10
-33 -1 -14 -6 -26 -11 -26 -5 0 -3 -6 3 -14 8 -10 6 -19 -12 -38 -13 -14 -21
-30 -19 -36 2 -7 -1 -12 -8 -12 -6 0 -8 -4 -5 -10 3 -5 2 -10 -3 -10 -6 0 -9
-6 -8 -12 0 -7 -2 -14 -6 -16 -4 -1 -18 -12 -31 -25 -13 -12 -32 -29 -43 -38
-39 -32 -164 -168 -164 -179 0 -5 -13 -10 -29 -10 -15 0 -40 -9 -55 -21 -24
-19 -31 -18 -27 4 0 4 -3 7 -9 7 -5 0 -10 -9 -10 -21 0 -15 -5 -19 -15 -15 -9
3 -18 -1 -21 -9 -4 -8 -10 -12 -15 -9 -6 3 -17 0 -25 -7 -11 -9 -18 -9 -26 -1
-17 17 -33 15 -18 -3 16 -19 3 -19 -30 0 -36 20 -43 18 -26 -7 12 -17 24 -22
53 -20 26 2 44 -3 58 -15 11 -11 25 -20 30 -22 6 -1 9 -9 7 -18 -2 -11 2 -13
18 -8 19 6 21 5 11 -13 -14 -26 -14 -29 3 -35 10 -4 12 0 9 14 -7 25 8 24 35
-1 20 -19 35 -20 352 -20 l330 0 0 1280 0 1281 -450 -1 c-247 -1 -450 -5 -450
-9 0 -4 6 -13 13 -21 9 -11 8 -11 -7 0 -18 14 -18 13 -12 -10 6 -19 5 -21 -3
-10 -6 8 -8 23 -5 33 3 9 1 17 -4 17 -6 0 -9 -13 -8 -29 2 -22 -2 -28 -14 -23
-13 5 -13 3 -1 -11 7 -9 17 -14 22 -11 5 3 9 0 9 -6 0 -7 -7 -10 -15 -6 -10 4
-15 -1 -15 -15 0 -18 -4 -20 -27 -15 -21 5 -24 4 -13 -4 8 -5 23 -10 32 -10
10 0 23 -10 29 -22 12 -22 11 -23 -8 -5 -19 16 -21 16 -27 2 -9 -23 -7 -32 3
-17 6 10 11 9 22 -4 11 -14 11 -16 0 -10 -13 8 -11 -4 6 -50 2 -7 0 -15 -6
-19 -7 -4 -9 1 -5 12 4 14 4 15 -4 4 -14 -19 -3 -53 17 -48 9 2 15 9 13 15 -1
7 1 11 5 11 27 -4 33 2 23 20 -15 29 -12 37 6 15 8 -10 13 -13 9 -6 -4 7 1 12
12 13 11 0 13 3 5 6 -8 3 -5 10 10 23 21 17 21 19 6 25 -10 4 -18 11 -18 17 0
5 4 7 9 3 5 -3 12 -1 15 4 4 5 2 12 -4 16 -20 13 -9 23 14 12 l23 -11 -21 -19
c-17 -15 -18 -18 -3 -13 15 5 16 3 7 -14 -6 -11 -8 -25 -5 -30 4 -6 -1 -7 -12
-3 -10 3 -15 3 -11 -2 4 -4 3 -14 -3 -22 -13 -15 -1 -17 21 -3 10 6 21 3 36
-11 16 -15 24 -17 29 -8 6 8 4 10 -5 4 -9 -6 -11 -4 -6 4 10 15 19 7 23 -20 2
-14 -1 -18 -9 -13 -7 4 2 -8 20 -27 18 -19 39 -34 45 -34 7 0 13 -12 15 -27 3
-27 -7 -36 -22 -20 -4 4 -11 7 -14 8 -4 0 -20 6 -37 13 -16 7 -34 14 -40 15
-18 5 -50 17 -67 27 -12 6 -18 6 -18 -2 0 -8 -6 -7 -16 2 -17 14 -20 15 -62
17 -13 1 -21 6 -18 11 4 5 -13 13 -36 17 -35 5 -39 8 -23 15 17 6 16 8 -10 9
-16 2 -33 2 -37 1 -10 -1 -10 16 0 22 4 2 2 2 -5 1 -7 -2 -20 4 -29 13 -16 16
-16 15 -10 -7 l7 -25 -20 23 c-23 26 -32 28 -25 5 4 -11 3 -14 -3 -7 -14 19
-54 36 -69 30 -9 -3 -12 -1 -9 4 3 6 -2 10 -12 10 -15 0 -16 2 -3 10 12 8 11
10 -7 10 -17 0 -21 -4 -16 -17 7 -17 6 -17 -11 0 -10 9 -22 14 -28 11 -7 -4
-8 -2 -4 4 4 7 1 12 -6 13 -7 0 -20 2 -28 4 -8 2 -26 6 -39 9 -28 6 -40 16
-20 16 11 0 11 2 -1 10 -22 14 -30 12 -24 -7 3 -10 -2 -6 -12 9 -17 25 -53 51
-39 28 3 -6 1 -10 -4 -10 -6 0 -11 5 -11 11 0 6 -9 8 -21 4 -14 -5 -25 -1 -35
12 -9 10 -13 13 -10 6 4 -7 -1 -11 -13 -10 -16 1 -18 4 -8 16 10 12 9 14 -7 7
-15 -5 -26 1 -42 21 -13 15 -23 22 -24 16 0 -7 5 -13 11 -13 5 0 7 -5 3 -11
-4 -8 -11 -5 -18 9 -11 19 -20 20 -329 21 -214 1 -316 -2 -312 -9 3 -5 2 -10
-4 -10 -5 0 -11 6 -13 12 -3 8 -10 3 -17 -11 -12 -21 -11 -23 3 -18 19 8 20 6
3 -26 l-13 -24 -11 23 c-6 14 -7 26 -2 30 5 3 9 12 9 20 0 11 -20 14 -105 14
l-105 0 0 -165z m728 142 c20 4 23 2 12 -6 -8 -5 -18 -7 -22 -5 -4 3 -8 -7 -8
-21 0 -18 -4 -24 -12 -19 -8 5 -7 0 2 -11 9 -11 10 -16 3 -11 -8 4 -13 1 -13
-9 0 -9 -4 -13 -10 -10 -5 3 -10 1 -10 -4 0 -6 6 -11 13 -11 8 0 7 -3 -3 -9
-8 -6 -18 -7 -22 -5 -4 3 -8 -2 -8 -10 0 -10 6 -13 18 -10 14 5 13 2 -4 -13
-11 -10 -18 -25 -16 -32 3 -8 0 -11 -6 -7 -5 3 -12 -1 -16 -9 -3 -8 0 -15 7
-15 7 0 4 -5 -5 -11 -9 -5 -15 -16 -12 -23 3 -7 -2 -16 -11 -20 -10 -3 -15
-12 -11 -21 3 -8 1 -15 -4 -15 -6 0 -10 -9 -10 -20 0 -24 -16 -26 -36 -5 -8 8
-22 12 -32 9 -10 -4 -13 -3 -6 3 6 4 15 19 19 33 7 23 6 24 -7 6 -13 -17 -15
-17 -21 -2 -4 9 -2 16 3 16 5 0 14 10 21 21 6 12 7 19 1 15 -5 -3 -13 1 -16
10 -4 10 -12 14 -24 9 -14 -5 -15 -4 -4 6 15 17 16 53 0 43 -6 -4 -8 -3 -5 4
4 5 17 8 30 5 15 -3 18 -2 9 5 -10 7 -7 13 12 25 14 10 31 17 38 16 7 0 4 -4
-7 -9 -11 -5 -14 -9 -7 -9 7 -1 10 -5 7 -11 -3 -5 -1 -10 4 -10 6 0 11 4 11
10 0 5 8 6 18 3 15 -6 15 -5 -2 12 -12 12 -14 21 -7 23 6 2 11 8 11 14 0 6 -6
5 -15 -2 -9 -7 -18 -10 -21 -7 -10 10 20 34 36 30 10 -3 11 -2 4 4 -6 4 -14
17 -18 28 -5 19 -2 20 34 17 24 -3 47 1 57 9 9 8 14 9 10 2 -4 -6 -4 -13 0
-16 5 -2 2 -2 -4 -1 -7 2 -13 -1 -13 -7 0 -6 8 -9 18 -7 11 3 16 12 15 28 -1
14 0 20 3 14 3 -6 17 -9 32 -7z m1178 1 c4 -7 3 -8 -4 -4 -7 4 -12 5 -12 2 0
-3 10 -10 21 -17 15 -7 19 -8 15 0 -4 7 -1 9 8 5 9 -3 14 -11 13 -17 -1 -6 8
-13 20 -15 12 -2 27 -10 34 -18 7 -8 8 -14 3 -13 -22 4 -23 -3 -8 -33 16 -31
16 -32 0 -19 -15 13 -17 11 -14 -22 1 -21 7 -37 12 -37 6 0 5 -5 -2 -12 -9 -9
-7 -17 11 -36 12 -13 21 -26 19 -28 -1 -2 4 -17 12 -32 7 -15 17 -42 21 -59 3
-18 11 -33 16 -33 6 0 7 5 4 10 -10 16 1 11 16 -7 10 -11 10 -14 2 -9 -7 4
-13 2 -13 -3 0 -6 5 -11 11 -11 5 0 7 -4 4 -10 -3 -5 -1 -10 5 -10 7 0 10 -7
7 -15 -4 -8 -2 -17 4 -20 5 -4 7 -11 4 -16 -4 -5 -1 -9 5 -9 6 0 8 -4 5 -10
-3 -5 -1 -10 4 -10 6 0 11 -5 11 -11 0 -5 -5 -7 -12 -3 -7 4 -2 -6 10 -24 25
-35 57 -103 54 -115 -2 -5 2 -6 7 -3 5 4 12 2 16 -4 3 -5 15 -10 26 -10 10 0
18 -6 17 -12 -2 -7 2 -12 8 -11 6 1 9 -8 7 -21 -3 -13 0 -27 6 -30 7 -5 9 0 5
11 -5 17 -5 17 6 0 15 -24 3 -42 -18 -25 -15 12 -16 11 -4 -4 14 -17 24 -71
13 -63 -4 2 -13 -10 -20 -26 -7 -16 -18 -29 -24 -29 -5 0 -8 3 -4 6 3 3 -2 14
-11 25 -10 10 -24 35 -31 56 -7 21 -26 66 -42 101 -16 35 -29 66 -29 70 0 11
-59 160 -86 219 -13 28 -24 55 -24 58 0 4 -17 48 -39 98 -46 110 -87 214 -96
245 -5 16 -2 22 9 22 8 0 18 -5 22 -12z m-1021 -8 c3 -5 2 -10 -4 -10 -5 0
-13 5 -16 10 -3 6 -2 10 4 10 5 0 13 -4 16 -10z m1112 -26 c-3 -3 -12 -4 -19
-1 -8 3 -5 6 6 6 11 1 17 -2 13 -5z m-1476 -27 c-10 -9 -11 -8 -5 6 3 10 9 15
12 12 3 -3 0 -11 -7 -18z m-39 -23 c-9 -16 -10 -14 -9 8 1 15 6 23 11 18 4 -4
4 -16 -2 -26z m1901 13 c4 3 7 -1 7 -11 0 -9 4 -15 9 -12 5 3 15 -2 22 -11 12
-14 12 -16 -1 -9 -8 4 -4 -2 10 -13 14 -11 21 -21 15 -21 -5 -1 -1 -5 10 -10
19 -8 19 -9 1 -9 -17 -1 -17 -2 -2 -26 9 -14 12 -25 6 -25 -5 0 -18 20 -29 43
-11 24 -34 59 -51 77 -31 33 -41 51 -17 31 8 -6 17 -8 20 -4z m-1873 -22 c-15
-18 0 -20 20 -2 12 10 12 9 1 -5 -7 -9 -21 -16 -31 -15 -18 1 -18 3 -3 19 19
22 31 24 13 3z m1636 -12 c-5 -11 -2 -13 9 -9 9 3 13 2 10 -4 -8 -14 -18 -13
-41 5 -19 15 -19 15 0 8 16 -5 18 -3 13 11 -4 11 -3 15 4 11 6 -4 8 -14 5 -22z
m-1936 -3 c0 -5 -5 -10 -11 -10 -5 0 -7 5 -4 10 3 6 8 10 11 10 2 0 4 -4 4
-10z m655 -6 c9 3 13 2 10 -4 -3 -6 4 -10 17 -10 18 0 20 -2 8 -10 -12 -8 -12
-10 5 -10 15 0 17 -3 7 -9 -11 -7 -10 -9 3 -14 9 -4 13 -3 10 2 -3 5 0 13 6
17 8 5 8 8 -1 14 -8 5 -7 9 5 13 9 4 14 3 10 -3 -4 -6 8 -13 25 -16 35 -7 52
-24 18 -18 -13 2 -5 -3 17 -10 22 -8 33 -15 25 -16 -13 -1 -13 -2 0 -7 8 -3
24 -13 35 -22 19 -15 19 -15 3 4 -9 11 -17 24 -17 30 0 5 -8 12 -18 16 -14 6
-12 7 9 6 15 -1 24 -5 22 -9 -3 -4 2 -8 10 -8 10 0 13 -6 10 -15 -4 -8 -2 -15
3 -15 13 0 12 33 -1 42 -8 6 -7 8 1 8 6 0 15 -4 18 -10 3 -5 11 -10 16 -10 6
0 7 5 4 10 -10 17 4 11 25 -10 18 -18 18 -20 3 -29 -15 -8 -15 -11 -3 -28 14
-16 13 -17 -1 -5 -14 10 -18 10 -23 -4 -3 -9 -4 -19 -1 -24 3 -4 -2 -10 -10
-14 -9 -3 -12 -12 -8 -23 7 -17 6 -17 -11 0 -21 21 -22 21 -30 1 -3 -8 -2 -12
4 -9 6 3 10 -3 10 -15 0 -13 4 -19 12 -14 7 4 8 3 4 -5 -4 -6 -11 -9 -15 -6
-5 2 -17 -6 -28 -18 -25 -27 -40 -52 -27 -44 6 3 16 2 24 -4 12 -7 10 -9 -6
-9 -23 0 -38 -24 -27 -43 4 -7 0 -6 -9 1 -15 12 -16 9 -13 -27 2 -23 -1 -41
-6 -41 -6 0 -7 5 -4 10 3 6 -1 10 -9 10 -9 0 -16 3 -16 8 0 4 -20 18 -45 31
-25 13 -43 26 -40 29 2 3 13 -1 22 -9 16 -13 17 -12 5 3 -14 17 -55 21 -45 4
4 -5 1 -6 -7 -1 -9 6 -12 4 -8 -7 4 -9 0 -15 -8 -15 -8 0 -12 3 -9 5 3 3 -2
14 -12 24 -9 11 -11 18 -5 18 7 0 12 -4 12 -10 0 -5 5 -10 10 -10 6 0 10 5 10
10 0 10 -56 27 -72 22 -5 -1 -8 4 -8 12 0 25 -23 36 -44 20 -26 -19 -45 -18
-20 1 17 13 17 14 1 9 -16 -6 -17 -3 -11 22 l7 29 -26 -29 c-15 -16 -27 -25
-27 -20 0 12 43 49 53 46 4 -1 10 5 14 14 5 13 8 13 15 2 6 -9 8 -8 6 7 -2 14
3 21 20 23 12 2 22 7 22 12 0 5 8 7 18 4 14 -5 15 -4 2 5 -9 6 -18 7 -24 1 -6
-6 -18 -10 -28 -10 -10 0 -18 -4 -18 -10 0 -5 -5 -10 -11 -10 -5 0 -8 4 -5 9
4 5 0 12 -6 14 -8 3 -6 6 5 6 10 1 15 6 12 11 -5 9 7 14 26 12 4 -1 9 8 12 18
3 11 0 20 -6 20 -6 0 -4 8 5 17 16 15 16 17 0 30 -15 13 -14 13 6 3 12 -6 22
-8 22 -4 0 4 3 4 7 1 3 -4 -2 -14 -13 -22 -11 -9 -14 -14 -6 -15 10 0 10 -5 2
-21 -7 -11 -9 -23 -7 -26 3 -2 8 5 12 16 5 16 13 19 37 16 17 -2 34 -9 38 -15
5 -7 11 -6 20 5 11 13 10 14 -5 9 -11 -5 -16 -3 -12 2 5 9 -10 13 -56 14 -15
1 -16 4 -7 15 7 8 17 12 23 8 5 -3 7 -1 4 4 -4 6 0 16 8 23 12 10 13 16 3 29
-12 14 -11 14 4 2 10 -7 25 -11 33 -7z m-52 -20 c-6 -16 -10 -16 -38 -4 -18 8
-18 9 -2 9 10 1 16 5 13 10 -4 5 3 7 13 4 12 -3 17 -11 14 -19z m988 -6 c-10
-11 -11 -10 -5 5 5 14 2 16 -12 11 -16 -5 -16 -4 -4 5 20 14 39 -4 21 -21z
m385 -28 c0 -23 -12 -17 -19 9 -3 12 0 18 7 15 6 -2 12 -13 12 -24z m-1731 11
c3 -5 2 -12 -3 -15 -5 -3 -9 1 -9 9 0 17 3 19 12 6z m1931 -18 c15 -20 18 -53
6 -53 -9 0 -32 44 -32 60 0 15 11 12 26 -7z m-1166 -19 c0 -8 -19 -13 -24 -6
-3 5 1 9 9 9 8 0 15 -2 15 -3z m570 -15 c0 -6 -4 -7 -10 -4 -5 3 -10 11 -10
16 0 6 5 7 10 4 6 -3 10 -11 10 -16z m-1333 -14 c0 -8 -3 -13 -5 -10 -3 3 -11
0 -18 -6 -9 -7 -14 -6 -20 3 -4 7 -4 10 1 6 4 -4 14 -1 22 7 18 19 20 19 20 0z
m268 5 c-3 -5 -12 -10 -18 -10 -7 0 -6 4 3 10 19 12 23 12 15 0z m1296 -7 c13
-17 13 -17 -6 -3 -11 8 -22 16 -24 17 -2 2 0 3 6 3 6 0 17 -8 24 -17z m-1518
-8 c9 -21 -9 -27 -24 -8 -10 12 -10 14 -1 9 6 -4 12 -2 12 3 0 16 7 13 13 -4z
m1687 -29 c0 7 8 15 17 18 13 5 11 0 -6 -18 -14 -15 -29 -26 -35 -25 -6 0 -5
3 1 6 10 3 9 8 -2 20 -8 8 -15 19 -15 25 0 6 9 0 20 -13 10 -13 19 -19 20 -13z
m303 27 c-19 -7 -16 -34 8 -59 16 -17 22 -38 24 -81 3 -51 2 -54 -5 -22 -5 21
-21 57 -34 82 -14 24 -22 47 -19 51 4 3 1 6 -5 6 -7 0 -12 7 -12 15 0 10 9 15
28 14 15 0 21 -3 15 -6z m-1213 -24 c12 -8 11 -9 -6 -4 -27 7 -53 -19 -28 -29
9 -4 19 -4 22 -1 3 3 0 5 -6 5 -7 0 -12 5 -12 11 0 6 9 8 20 4 13 -4 22 -1 26
9 5 14 8 14 21 1 8 -9 19 -13 24 -10 5 4 9 1 9 -4 0 -6 6 -11 13 -11 6 0 25
-7 41 -15 15 -8 32 -12 37 -9 5 3 16 1 26 -4 14 -9 14 -10 -6 -17 -11 -3 -19
-11 -15 -16 4 -6 10 -6 18 0 10 8 18 5 31 -9 13 -14 14 -20 5 -20 -9 0 -8 -4
4 -13 16 -12 16 -14 2 -26 -15 -13 -15 -16 1 -35 l18 -21 -23 19 c-15 13 -21
26 -17 40 3 12 2 15 -1 8 -3 -6 -10 -9 -16 -6 -6 4 -6 -2 1 -14 14 -26 15 -74
2 -52 -6 8 -7 18 -4 24 3 5 1 6 -5 3 -5 -4 -8 -17 -4 -29 4 -17 2 -20 -12 -15
-10 4 -15 3 -11 -4 4 -5 16 -7 28 -4 20 5 20 5 -2 -8 -15 -9 -20 -17 -12 -21
6 -4 11 -15 10 -24 0 -14 -2 -13 -9 3 -8 18 -9 17 -9 -8 -1 -16 -5 -26 -11
-22 -5 3 -10 -1 -10 -10 0 -9 4 -14 9 -11 5 4 7 -3 4 -14 -5 -18 -7 -19 -17
-5 -10 14 -12 14 -12 -4 0 -11 4 -17 8 -15 4 3 8 -3 8 -12 0 -16 1 -16 15 2 8
10 15 15 15 10 0 -5 7 -3 15 4 13 11 13 15 3 21 -9 6 -10 9 -1 9 7 0 17 -8 22
-17 13 -23 14 -12 1 21 -8 21 -6 27 10 36 11 6 18 16 16 23 -1 6 -1 9 1 4 3
-4 9 -4 15 -1 5 3 4 -3 -4 -15 -7 -12 -16 -21 -20 -21 -5 0 -8 -7 -8 -15 0 -8
5 -15 10 -15 6 0 9 6 8 13 -2 6 3 11 10 9 6 -1 11 4 10 10 -2 7 2 12 8 11 6
-1 10 8 10 20 -2 26 12 49 25 41 14 -8 11 -24 -3 -20 -7 1 -10 1 -5 -1 4 -3 4
-10 1 -16 -4 -7 1 -4 11 5 18 17 18 18 1 37 -13 14 -14 21 -5 27 8 5 10 3 4
-6 -5 -9 -4 -11 4 -6 19 12 1 26 -27 21 -26 -6 -26 -5 3 8 28 13 29 14 10 25
-11 6 -15 12 -8 12 6 0 15 -4 18 -10 10 -16 28 -12 21 5 -3 8 -2 14 2 14 22
-4 42 2 38 10 -9 14 37 0 58 -18 18 -15 19 -15 12 3 -5 15 -4 17 7 7 8 -6 12
-22 10 -35 -3 -16 1 -25 14 -30 14 -6 16 -5 6 5 -20 20 -16 38 7 32 11 -3 23
-9 26 -14 3 -5 -3 -6 -13 -3 -16 5 -15 3 2 -11 19 -15 20 -15 25 7 5 19 8 20
15 8 13 -20 15 -41 5 -35 -5 3 -8 -3 -7 -14 0 -11 4 -18 8 -15 4 2 9 -1 11 -8
3 -7 7 -5 11 6 5 12 3 15 -6 11 -6 -4 -4 0 6 8 11 9 14 17 7 20 -6 3 -6 5 1 3
13 -2 22 -36 10 -36 -4 0 -8 -6 -8 -12 0 -7 -4 -22 -8 -33 l-7 -20 13 20 c6
11 21 29 32 39 19 19 19 19 12 -3 -4 -14 -1 -29 7 -40 7 -9 3 -6 -9 7 -13 13
-23 18 -23 11 0 -7 10 -24 23 -37 12 -14 16 -22 8 -17 -11 6 -13 4 -8 -8 4
-11 2 -14 -9 -10 -17 6 -19 20 -3 25 7 2 6 8 -3 16 -12 10 -15 6 -16 -24 -1
-19 3 -32 8 -29 5 3 11 1 15 -5 3 -5 0 -10 -8 -10 -8 0 -18 -8 -21 -17 -6 -15
-8 -15 -16 -3 -8 13 -10 12 -10 -2 0 -22 8 -23 31 -2 13 12 19 12 25 3 4 -8 3
-10 -4 -5 -7 4 -12 3 -12 -3 0 -6 -8 -18 -19 -28 -21 -20 -41 -90 -22 -79 7 5
8 1 4 -10 -4 -11 -3 -15 5 -10 6 3 13 2 17 -4 11 -17 25 -11 25 11 0 11 4 18
9 14 5 -3 11 5 13 17 2 13 9 22 15 21 6 -1 9 6 6 17 -3 11 0 20 6 20 6 0 11 9
11 20 0 11 5 20 11 20 5 0 8 -4 5 -9 -3 -5 13 -15 36 -23 23 -7 44 -20 46 -28
4 -11 1 -10 -12 3 -10 9 -25 17 -34 16 -13 0 -11 -3 6 -11 13 -7 26 -24 29
-40 3 -15 9 -25 14 -22 5 3 4 -6 -3 -21 -8 -18 -14 -22 -20 -13 -11 17 -10 30
1 24 5 -4 6 5 2 21 -4 15 -14 29 -22 31 -11 4 -12 2 -2 -9 6 -8 11 -25 11 -39
-1 -14 3 -34 7 -44 6 -15 5 -17 -5 -11 -8 5 -11 4 -6 -3 3 -6 16 -9 27 -7 16
3 19 0 15 -12 -5 -13 -4 -14 9 -3 12 10 15 10 15 -4 0 -9 -6 -16 -14 -16 -8 0
-20 -2 -28 -3 -7 -2 -10 -2 -5 0 13 8 7 25 -8 20 -8 -4 -17 -1 -21 4 -3 6 -19
9 -34 5 -18 -3 -30 -1 -33 8 -3 7 -18 12 -36 11 -22 -1 -32 3 -37 17 -4 15 -9
16 -19 8 -10 -9 -16 -7 -24 8 -6 11 -7 22 -3 26 3 4 -1 4 -10 1 -10 -4 -15
-13 -11 -23 4 -14 3 -14 -5 -3 -6 8 -17 11 -26 8 -9 -4 -16 -1 -16 4 0 7 -10
9 -22 6 -23 -6 -23 -6 -3 10 20 15 20 15 -2 9 -15 -5 -25 -1 -33 11 -9 15 -10
14 -4 -7 6 -22 5 -23 -9 -11 -9 7 -14 17 -11 22 4 8 -43 14 -69 10 -5 -1 -6 3
-2 9 6 10 -27 15 -69 11 -16 -1 -17 1 -6 14 11 13 10 15 -6 12 -11 -1 -25 -7
-33 -11 -10 -6 -12 -5 -7 2 4 7 2 12 -3 12 -19 0 -26 -5 -23 -15 2 -5 0 -6 -5
-2 -4 5 -8 12 -8 15 0 15 -17 32 -26 27 -8 -6 -13 9 -10 28 1 5 -3 6 -9 2 -6
-3 -8 -10 -5 -15 3 -5 -8 -5 -24 0 -16 4 -33 5 -37 2 -4 -4 -4 -1 0 6 4 7 12
10 17 7 5 -3 6 1 3 9 -3 9 -10 16 -16 16 -5 0 -6 -4 -3 -10 3 -5 1 -10 -4 -10
-6 0 -11 4 -11 9 0 5 -12 12 -27 16 -15 3 -30 10 -33 13 -7 9 -101 44 -120 45
-8 0 -23 10 -33 21 -18 21 -18 21 -6 -4 10 -21 10 -23 -2 -14 -14 10 -31 11
-55 2 -4 -2 -8 10 -10 25 -2 24 0 26 11 17 12 -10 16 -9 21 5 5 13 9 14 15 3
7 -10 9 -9 9 5 0 10 4 16 9 13 5 -4 8 5 7 19 -3 21 -1 23 16 14 18 -10 18 -9
8 12 -11 19 -10 21 4 16 9 -4 16 -2 16 3 0 6 -6 10 -12 11 -7 1 -2 5 12 9 15
5 18 8 9 9 -9 1 -19 8 -23 16 -3 8 -2 14 2 12 4 -1 18 6 32 16 13 9 20 17 15
17 -6 0 -4 4 3 9 7 4 15 16 16 26 2 11 9 21 17 23 11 3 11 1 -1 -7 -22 -16 -7
-13 26 4 34 18 35 18 54 4z m584 -31 c8 -5 7 -8 -1 -8 -7 0 -17 9 -23 19 -14
27 -12 41 2 16 6 -11 16 -23 22 -27z m440 -27 c-1 -26 0 -26 26 1 27 30 38 14
13 -20 -21 -28 -53 -39 -81 -26 -9 4 -22 6 -29 5 -6 -1 -15 4 -19 10 -5 9 -2
10 9 6 17 -6 57 26 57 46 0 5 6 7 13 4 6 -2 12 -14 11 -26z m-679 9 c3 -5 1
-10 -4 -10 -6 0 -11 5 -11 10 0 6 2 10 4 10 3 0 8 -4 11 -10z m285 -20 c0 -10
14 -27 30 -37 17 -9 30 -22 30 -27 0 -5 -8 -2 -18 7 -10 10 -22 14 -25 10 -4
-3 -7 -1 -7 6 0 7 -4 10 -9 7 -5 -3 -11 10 -13 28 -2 19 0 32 4 30 4 -3 8 -14
8 -24z m235 -10 c30 -48 31 -55 6 -57 -14 -1 -18 3 -14 14 4 11 2 14 -5 9 -8
-5 -10 -1 -5 10 5 13 2 16 -8 12 -12 -5 -14 1 -11 23 2 16 6 29 8 29 2 0 15
-18 29 -40z m-615 -35 c0 -4 -9 4 -20 18 -11 14 -20 28 -20 32 0 4 9 -4 20
-18 11 -14 20 -28 20 -32z m25 27 c-6 -7 -34 11 -29 19 3 5 11 3 19 -4 7 -6
12 -13 10 -15z m902 -18 c-4 -4 -14 1 -22 12 -22 29 -18 41 7 17 12 -13 19
-26 15 -29z m-786 19 c12 -16 12 -17 -1 -7 -8 7 -24 14 -35 17 -19 4 -19 5 1
6 12 0 28 -7 35 -16z m-61 -3 c0 -5 -4 -10 -10 -10 -5 0 -10 5 -10 10 0 6 5
10 10 10 6 0 10 -4 10 -10z m45 -10 c3 -5 -3 -10 -14 -10 -12 0 -21 5 -21 10
0 6 6 10 14 10 8 0 18 -4 21 -10z m775 -10 c0 -5 -5 -10 -11 -10 -5 0 -7 5 -4
10 3 6 8 10 11 10 2 0 4 -4 4 -10z m-154 -15 c18 -14 17 -14 -13 -15 -33 0
-52 15 -31 23 20 8 23 8 44 -8z m-1196 0 c0 -2 -9 -9 -20 -15 -16 -9 -18 -8
-14 5 5 13 34 22 34 10z m617 -1 c-3 -3 -12 -4 -19 -1 -8 3 -5 6 6 6 11 1 17
-2 13 -5z m-950 -84 c14 -11 33 -20 42 -20 14 -1 14 -2 -1 -10 -21 -13 -72 5
-62 22 5 7 2 9 -9 5 -11 -4 -14 -2 -10 9 7 18 10 18 40 -6z m1473 -64 c0 -5
-10 0 -22 11 -13 11 -28 19 -33 17 -6 -3 -11 6 -12 18 -2 18 0 20 7 8 8 -12
10 -10 10 10 1 23 3 21 25 -15 14 -22 25 -44 25 -49z m65 72 c4 4 3 -3 -3 -14
-6 -12 -10 -23 -9 -26 1 -2 -6 5 -15 15 -24 25 -23 40 1 28 10 -6 22 -7 26 -3z
m-741 -53 c-4 -8 -7 -15 -9 -15 -2 0 -5 7 -9 15 -3 9 0 15 9 15 9 0 12 -6 9
-15z m773 -9 c0 -8 -6 -12 -15 -9 -11 5 -11 7 0 14 7 5 13 9 14 9 0 0 1 -6 1
-14z m-307 -30 c0 -3 -4 -8 -10 -11 -5 -3 -10 -1 -10 4 0 6 5 11 10 11 6 0 10
-2 10 -4z m-800 -41 c0 -2 -6 -7 -12 -11 -7 -4 -10 -4 -6 1 4 4 0 14 -10 22
-15 13 -15 13 6 3 12 -6 22 -13 22 -15z m806 -22 c-6 -6 -36 9 -36 18 0 5 9 4
20 -3 10 -7 18 -14 16 -15z m-726 -7 c0 -3 -4 -8 -10 -11 -5 -3 -10 -1 -10 4
0 6 5 11 10 11 6 0 10 -2 10 -4z m706 -18 c1 -9 -4 -19 -11 -22 -15 -5 -29 20
-19 35 8 14 27 6 30 -13z m-982 -50 c-3 -5 -12 -1 -20 9 -20 26 -17 35 5 16
11 -9 18 -21 15 -25z m186 7 c0 4 6 3 13 -3 6 -5 27 -9 45 -7 27 1 36 -3 48
-27 13 -25 13 -29 -1 -34 -8 -3 -12 -10 -9 -16 3 -5 12 -1 19 9 9 12 10 25 3
43 -7 19 -7 22 3 13 15 -15 23 -77 9 -68 -7 4 -9 -6 -6 -27 3 -18 3 -28 0 -21
-10 23 -44 -18 -37 -45 4 -19 3 -23 -7 -17 -9 6 -11 -1 -8 -28 2 -20 2 -34 -1
-32 -2 3 -10 0 -18 -7 -11 -9 -12 -7 -8 8 4 10 -1 7 -10 -8 -20 -36 -24 -35
-24 5 1 53 -13 120 -32 159 -11 21 -19 51 -19 69 0 28 2 30 17 18 16 -12 15
-10 -1 16 l-19 30 21 -19 c12 -11 22 -16 22 -11z m-180 -35 c0 -5 -2 -10 -4
-10 -3 0 -8 5 -11 10 -3 6 -1 10 4 10 6 0 11 -4 11 -10z m409 -14 c9 -11 9
-16 -1 -22 -7 -4 -10 -4 -6 1 4 4 3 14 -3 22 -6 7 -9 13 -6 13 2 0 10 -6 16
-14z m47 -26 c5 1 10 -4 12 -12 2 -9 0 -8 -8 2 -10 13 -11 13 -7 0 2 -8 9 -15
15 -15 6 0 21 -8 32 -17 22 -20 55 -25 44 -7 -5 8 -1 8 13 0 11 -6 23 -8 26
-4 11 10 37 -18 38 -41 1 -19 2 -18 8 4 5 17 9 21 15 12 4 -6 4 -17 1 -22 -4
-6 -3 -10 2 -9 4 1 10 1 13 -1 3 -1 16 -4 30 -6 24 -4 24 -4 5 10 -17 12 -18
17 -6 28 9 8 11 9 7 1 -4 -7 4 -19 19 -29 18 -12 23 -20 16 -27 -6 -6 -11 -20
-11 -31 0 -17 -2 -18 -10 -6 -8 13 -10 13 -10 -1 0 -9 -8 -23 -17 -30 -15 -11
-16 -11 -5 1 6 8 12 22 12 32 0 10 5 18 12 18 9 0 9 3 0 12 -9 9 -16 8 -30 -6
-9 -11 -11 -15 -4 -11 10 5 13 1 10 -16 -2 -13 -8 -23 -15 -22 -7 2 -8 -10 -2
-38 12 -50 4 -64 -24 -44 -29 20 -81 20 -74 0 5 -11 0 -13 -26 -8 -41 7 -55
19 -39 35 10 10 17 10 33 0 33 -21 36 -4 5 23 -49 42 -106 32 -176 -33 -47
-43 -86 -48 -76 -9 3 12 -1 25 -11 32 -14 11 -14 12 1 12 9 0 16 -4 16 -9 0
-5 5 -6 10 -3 6 4 8 10 5 15 -3 4 1 13 9 19 8 7 17 24 21 38 5 21 8 24 16 12
7 -11 9 -9 9 8 0 12 6 24 13 26 7 4 6 6 -5 6 -9 1 -19 -4 -21 -9 -3 -6 -4 -5
-3 2 2 7 -1 22 -6 33 -9 20 -9 20 6 1 15 -19 16 -19 36 -1 24 22 18 34 -7 14
-10 -7 -15 -10 -11 -5 4 5 3 17 -3 27 -6 13 -6 19 1 19 5 0 10 -6 10 -14 0 -9
8 -12 26 -8 18 3 22 7 13 13 -7 4 -17 5 -21 3 -4 -3 -8 -1 -8 4 0 5 11 14 25
20 14 6 25 17 25 24 0 10 2 10 9 0 4 -8 12 -13 17 -12z m-405 -13 c-6 -8 -8
-17 -4 -20 3 -4 1 -7 -5 -7 -16 0 -15 27 1 33 19 8 20 8 8 -6z m996 -50 c-4
-12 -37 -19 -37 -8 0 4 5 12 12 19 13 13 31 6 25 -11z m-212 -38 c-4 -5 4 -10
17 -10 l23 -2 -22 -4 c-13 -2 -23 -8 -23 -13 0 -4 10 -6 23 -3 12 3 19 2 15
-2 -4 -5 -2 -15 5 -23 10 -13 9 -15 -5 -9 -15 5 -16 4 -5 -14 8 -13 19 -18 31
-15 11 3 27 0 35 -7 12 -10 13 -9 6 3 -8 13 -7 13 8 1 20 -16 22 -32 5 -27 -7
1 -10 1 -5 -1 4 -3 7 -12 7 -21 0 -15 -2 -15 -10 -2 -7 12 -9 10 -8 -7 1 -12
7 -19 14 -16 7 2 14 -1 17 -9 2 -7 2 -3 1 9 -5 26 5 53 18 53 5 0 7 -12 3 -28
-4 -22 -1 -33 17 -48 22 -19 22 -19 8 0 -14 18 -13 19 4 13 17 -7 17 -6 5 10
-12 15 -12 16 4 10 9 -3 17 -2 17 3 0 17 -28 11 -39 -7 -8 -14 -10 -15 -10 -3
1 20 17 59 18 43 1 -7 7 -13 15 -13 14 0 66 -61 66 -77 0 -4 -5 -1 -10 7 -5 8
-10 11 -10 5 0 -13 16 -37 24 -36 3 1 6 -2 5 -6 0 -5 -7 -7 -15 -5 -8 2 -15
-5 -15 -15 -2 -24 -2 -25 6 -48 6 -17 5 -18 -5 -5 -10 13 -11 11 -7 -8 3 -12
1 -20 -4 -16 -5 3 -9 11 -9 19 0 8 -4 16 -9 19 -5 3 -8 -10 -8 -29 1 -19 5
-35 11 -35 5 0 2 -8 -6 -17 -9 -10 -13 -25 -11 -33 3 -9 0 -8 -9 4 -11 13 -17
16 -22 7 -4 -6 -13 -8 -19 -5 -8 4 -7 2 1 -7 11 -12 14 -12 22 1 12 18 12 2 0
-25 -5 -11 -9 -14 -9 -7 -1 7 -5 10 -11 7 -5 -3 -10 -1 -10 5 0 6 -4 9 -9 6
-5 -3 -19 2 -32 12 -13 10 -39 24 -57 31 -27 11 -35 11 -49 0 -15 -12 -16 -12
-8 1 6 12 5 12 -4 4 -14 -13 -51 -7 -51 7 0 5 8 5 17 2 15 -6 16 -5 3 9 -8 9
-17 12 -20 8 -8 -12 -63 -22 -55 -11 3 7 0 8 -9 5 -19 -7 -19 -4 -4 33 6 15
11 31 10 36 -1 4 3 7 8 7 6 0 8 15 4 40 -5 32 -4 40 9 40 10 0 13 6 10 21 -6
21 -5 21 23 4 16 -9 22 -11 13 -4 -28 25 -29 46 -2 60 22 12 23 14 6 20 -16 7
-15 8 5 8 20 1 21 4 12 21 -9 16 -8 20 5 20 10 0 13 -5 9 -12 -5 -10 -3 -10 7
0 12 11 12 14 -1 22 -12 7 -12 12 -2 22 6 6 12 20 12 31 0 10 5 15 10 12 6 -4
8 -11 5 -16z m238 -6 c-4 -11 -3 -14 5 -9 7 4 12 2 12 -3 0 -6 -6 -11 -12 -11
-9 0 -8 -4 2 -11 13 -9 13 -10 0 -6 -9 2 -15 16 -16 35 -1 17 3 29 7 26 4 -2
5 -12 2 -21z m-967 4 c5 -4 0 -5 -10 -1 -14 5 -17 4 -11 -5 6 -10 3 -11 -14
-2 -11 7 -21 13 -21 14 0 7 49 1 56 -6z m656 6 c-6 -2 -9 -10 -6 -15 4 -7 2
-8 -5 -4 -13 9 -5 26 12 25 9 0 8 -2 -1 -6z m-677 -43 c10 -11 16 -20 13 -20
-3 0 -13 9 -23 20 -10 11 -16 20 -13 20 3 0 13 -9 23 -20z m45 -1 c0 -4 -7 -6
-15 -3 -8 4 -15 10 -15 15 0 4 7 6 15 3 8 -4 15 -10 15 -15z m180 -9 c0 -5 -2
-10 -4 -10 -3 0 -8 5 -11 10 -3 6 -1 10 4 10 6 0 11 -4 11 -10z m605 -2 c5 4
5 1 1 -5 -4 -8 -2 -13 6 -14 7 0 4 -4 -7 -9 -28 -12 -35 -12 -35 1 0 5 5 7 10
4 14 -9 12 8 -2 25 -11 12 -10 12 3 2 9 -6 20 -8 24 -4z m203 -13 c-3 -3 -9 2
-12 12 -6 14 -5 15 5 6 7 -7 10 -15 7 -18z m158 -2 c1 -19 -1 -20 -24 -10 -20
9 -22 13 -9 15 10 2 14 8 11 14 -4 6 -1 9 7 6 8 -3 14 -14 15 -25z m-1136 -33
c7 -12 7 -20 1 -20 -5 0 -8 -9 -6 -19 3 -18 0 -19 -21 -10 -33 12 -37 11 -28
-3 4 -7 3 -8 -5 -4 -6 4 -9 11 -6 16 3 5 -3 13 -12 19 -10 6 -13 11 -6 11 6 0
15 -4 18 -10 3 -5 11 -10 16 -10 6 0 7 5 4 10 -3 6 -1 10 5 10 7 0 10 -7 6
-15 -3 -8 0 -15 7 -15 17 0 20 42 4 52 -9 6 -9 8 0 8 7 0 17 -9 23 -20z m150
10 c0 -5 -5 -10 -11 -10 -5 0 -7 5 -4 10 3 6 8 10 11 10 2 0 4 -4 4 -10z m965
0 c3 -5 2 -10 -4 -10 -5 0 -13 5 -16 10 -3 6 -2 10 4 10 5 0 13 -4 16 -10z
m22 -25 c0 -8 -4 -12 -9 -9 -5 3 -6 10 -3 15 9 13 12 11 12 -6z m-1207 -51 c0
-2 -9 0 -20 6 -11 6 -20 13 -20 16 0 2 9 0 20 -6 11 -6 20 -13 20 -16z m1014
-14 c-6 -5 -24 21 -24 34 0 6 6 1 14 -10 8 -10 12 -21 10 -24z m-974 0 c8 -5
11 -10 5 -10 -5 0 -17 5 -25 10 -8 5 -10 10 -5 10 6 0 17 -5 25 -10z m47 4
c-3 -3 -12 -4 -19 -1 -8 3 -5 6 6 6 11 1 17 -2 13 -5z m-43 -25 c14 -7 23 -16
20 -20 -3 -5 -1 -9 3 -9 5 0 18 -6 29 -14 15 -12 9 -11 -30 1 -40 13 -46 18
-30 24 16 6 16 8 2 8 -9 1 -20 6 -23 11 -8 13 -2 13 29 -1z m41 1 c3 -6 -1 -7
-9 -4 -18 7 -21 14 -7 14 6 0 13 -4 16 -10z m25 -20 c0 -5 -5 -10 -11 -10 -5
0 -7 5 -4 10 3 6 8 10 11 10 2 0 4 -4 4 -10z m1056 -36 c1 -8 -2 -12 -7 -8 -5
3 -9 -4 -9 -14 0 -11 7 -23 16 -26 8 -3 13 -10 9 -15 -3 -5 -1 -12 5 -16 5 -3
10 -12 10 -18 0 -7 -7 -3 -15 7 -13 17 -17 18 -28 6 -8 -9 -8 -11 0 -6 14 8
30 -13 17 -23 -15 -11 -13 -40 3 -34 8 3 12 12 9 19 -3 8 -1 14 4 14 5 0 8
-15 8 -32 -1 -18 -3 -27 -5 -20 -3 6 -8 10 -13 7 -10 -6 0 -55 11 -55 5 0 6 8
3 18 -5 13 -4 14 4 3 5 -7 7 -22 5 -32 -4 -13 0 -19 11 -19 9 0 16 5 16 11 0
5 -6 7 -12 3 -10 -5 -10 -4 -1 6 7 8 9 20 3 35 -7 18 -5 23 5 21 8 -1 18 -6
22 -11 4 -4 3 -5 -3 -2 -8 5 -12 -5 -10 -33 0 -22 3 -40 6 -41 30 -5 43 -9 48
-15 4 -4 -1 -4 -10 -1 -9 3 -22 -1 -28 -9 -17 -20 -27 -18 -34 9 -5 18 -8 20
-16 7 -7 -11 -10 -11 -10 -2 0 7 -4 10 -10 7 -13 -8 -13 8 -1 20 6 6 4 15 -4
22 -10 10 -14 9 -19 -3 -3 -9 -1 -12 4 -9 6 3 10 2 10 -4 0 -6 -9 -15 -20 -21
-11 -6 -20 -8 -20 -4 0 3 -7 0 -17 -7 -15 -13 -15 -12 -4 9 6 12 16 22 21 22
6 0 10 5 10 11 0 6 -13 0 -29 -14 -16 -13 -39 -23 -52 -21 -13 1 -30 3 -38 3
-11 1 -11 4 -1 16 10 12 10 15 -1 15 -8 0 -6 5 6 12 26 15 49 38 38 38 -5 0
-15 -6 -22 -12 -7 -7 -4 3 6 22 11 19 18 41 16 48 -3 6 3 12 12 12 9 0 13 5
10 10 -4 7 3 9 19 6 14 -3 29 0 32 6 4 7 2 8 -4 4 -7 -4 -12 -2 -12 4 0 7 -6
10 -13 7 -10 -4 -13 2 -9 19 2 13 13 26 24 30 16 5 18 8 7 15 -10 6 -5 9 16
10 17 1 22 3 13 6 -10 2 -18 11 -18 19 0 13 3 13 17 -2 10 -9 18 -23 19 -30z
m-1126 6 c0 -5 -7 -7 -15 -4 -8 4 -15 8 -15 10 0 2 7 4 15 4 8 0 15 -4 15 -10z
m336 -53 c3 -12 13 -30 22 -39 12 -15 13 -18 1 -18 -8 0 -22 6 -31 14 -14 10
-15 15 -5 26 10 10 8 12 -8 6 -16 -6 -18 -5 -7 5 6 7 12 18 12 23 0 6 -5 5
-12 -2 -17 -17 -53 4 -38 23 10 12 15 12 36 -1 13 -9 26 -26 30 -37z m178 38
c11 -8 15 -15 10 -15 -6 0 -19 7 -30 15 -10 8 -14 14 -9 14 6 0 19 -6 29 -14z
m-106 -33 c4 -25 -13 -30 -22 -6 -9 25 -7 36 7 32 6 -3 13 -14 15 -26z m122
-6 c0 -3 -4 -8 -10 -11 -5 -3 -10 -1 -10 4 0 6 5 11 10 11 6 0 10 -2 10 -4z
m-474 -34 c-6 -6 -56 10 -56 18 0 5 13 3 30 -3 16 -6 28 -13 26 -15z m-36 -12
c0 -5 -7 -7 -15 -4 -8 4 -15 8 -15 10 0 2 7 4 15 4 8 0 15 -4 15 -10z m25 -31
c15 -15 -17 -10 -45 7 l-25 15 30 -6 c17 -4 34 -11 40 -16z m433 -17 c-10 -13
-10 -14 0 -8 6 4 12 5 12 2 0 -2 3 -12 7 -22 5 -13 3 -15 -8 -9 -12 7 -12 6 1
-9 18 -23 21 -86 5 -109 -11 -16 -13 -15 -25 13 -7 16 -10 36 -6 45 3 8 1 15
-4 15 -5 0 -8 8 -8 18 1 9 -2 34 -6 56 -6 34 -4 37 9 26 9 -7 18 -10 22 -6 3
3 1 6 -5 6 -7 0 -12 5 -12 11 0 8 5 8 15 -1 12 -10 13 -16 3 -28z m-128 9 c5
-11 10 -28 10 -38 -1 -16 -3 -15 -20 6 -21 25 -26 51 -10 51 5 0 14 -9 20 -19z
m-104 -52 c-1 -11 -4 -19 -8 -19 -5 0 -15 0 -23 0 -22 0 -20 48 3 52 20 5 30
-6 28 -33z m525 14 c13 -16 12 -17 -3 -4 -17 13 -22 21 -14 21 2 0 10 -8 17
-17z m649 -9 c0 -8 -10 -14 -22 -14 -21 0 -21 0 -2 15 19 15 19 15 -1 9 -16
-5 -17 -4 -5 4 17 13 30 6 30 -14z m-1380 6 c8 -5 11 -10 5 -10 -5 0 -17 5
-25 10 -8 5 -10 10 -5 10 6 0 17 -5 25 -10z m867 -32 c-3 -8 -6 -5 -6 6 -1 11
2 17 5 13 3 -3 4 -12 1 -19z m-467 -4 c0 -8 -4 -12 -10 -9 -5 3 -10 10 -10 16
0 5 5 9 10 9 6 0 10 -7 10 -16z m960 -6 c0 -9 3 -9 9 1 7 10 9 7 8 -12 -1 -15
-3 -27 -3 -27 -1 0 -9 11 -18 25 -9 14 -12 25 -6 25 5 0 10 -6 10 -12z m-1133
-43 c19 -59 17 -74 -7 -68 -23 6 -33 22 -48 75 -10 36 -9 36 17 35 21 -2 28
-9 38 -42z m-165 -14 c4 -30 -28 -54 -42 -31 -12 19 -13 33 -1 26 13 -8 34 21
25 36 -5 9 -4 10 4 3 5 -5 12 -21 14 -34z m15 17 c-3 -8 -6 -5 -6 6 -1 11 2
17 5 13 3 -3 4 -12 1 -19z m800 -5 c-4 -3 -1 -13 6 -21 8 -11 8 -14 0 -9 -6 4
-14 1 -17 -5 -2 -7 -3 -2 -1 12 4 32 4 30 12 30 3 0 3 -3 0 -7z m-456 -61 c-6
-10 -7 -22 -3 -26 3 -4 -1 -4 -11 0 -20 7 -22 35 -5 52 18 18 32 -2 19 -26z
m-55 3 c8 -10 14 -36 14 -57 0 -21 5 -38 10 -38 6 0 10 -5 10 -11 0 -5 -5 -7
-12 -3 -6 4 -8 3 -4 -4 8 -13 -9 -58 -28 -78 -13 -12 -16 -11 -22 8 -6 19 -8
20 -18 6 -10 -14 -12 -11 -12 15 0 18 -4 56 -8 85 -4 30 -3 51 2 48 4 -3 7 7
4 22 -3 25 -1 28 24 27 15 -1 33 -10 40 -20z m574 5 c-24 -15 -37 -11 -16 5
11 8 22 12 25 9 3 -3 -1 -9 -9 -14z m-925 -37 c-17 -17 -20 -27 -5 -18 12 7
12 3 4 -19 -3 -9 -11 -13 -16 -10 -6 4 -5 -2 1 -14 15 -28 14 -32 -6 -33 -17
0 -17 -1 -1 -7 16 -7 16 -8 -3 -20 -12 -8 -18 -9 -15 -3 4 5 2 12 -3 16 -6 3
-7 15 -2 28 5 12 9 24 9 27 0 3 5 24 12 47 10 34 16 41 26 32 11 -9 11 -14 -1
-26z m190 17 c27 -30 12 -34 -15 -5 -13 14 -19 25 -13 25 5 0 18 -9 28 -20z
m791 -15 c13 -14 20 -25 16 -25 -9 1 -52 37 -52 44 0 12 13 5 36 -19z m-885
-56 c7 -24 12 -66 12 -94 0 -27 2 -44 4 -37 6 17 23 15 23 -3 0 -8 -7 -15 -15
-15 -8 0 -15 -4 -15 -10 0 -7 -110 -11 -110 -3 -1 14 15 31 25 26 11 -4 13 14
11 92 -2 90 -1 98 18 105 24 9 30 1 47 -61z m159 51 c0 -5 -5 -10 -11 -10 -5
0 -7 5 -4 10 3 6 8 10 11 10 2 0 4 -4 4 -10z m-140 -20 c0 -5 -4 -10 -10 -10
-5 0 -10 5 -10 10 0 6 5 10 10 10 6 0 10 -4 10 -10z m949 -4 c9 -11 9 -16 0
-22 -8 -4 -9 -3 -5 4 4 7 2 12 -3 12 -6 0 -11 5 -11 10 0 14 5 13 19 -4z
m-869 -86 c0 -5 -4 -10 -10 -10 -5 0 -10 5 -10 10 0 6 5 10 10 10 6 0 10 -4
10 -10z m34 -73 c8 -12 15 -31 14 -42 0 -11 2 -40 5 -65 4 -24 4 -53 1 -65
-17 -67 -87 35 -79 114 2 23 0 39 -5 36 -4 -3 -10 0 -12 7 -5 13 26 35 49 37
7 1 19 -9 27 -22z m41 3 c-3 -5 -10 -10 -16 -10 -5 0 -9 5 -9 10 0 6 7 10 16
10 8 0 12 -4 9 -10z m-300 -38 c17 -12 23 -146 10 -209 -8 -38 -34 -44 -62
-13 -15 15 -19 38 -21 100 -2 77 0 82 26 105 30 27 33 28 47 17z m115 -87 c0
-2 -13 1 -30 6 -16 6 -28 15 -25 19 3 5 1 11 -5 15 -6 4 -8 10 -5 15 4 7 65
-44 65 -55z m-404 -11 c-23 -16 -46 -18 -46 -4 0 6 11 10 25 10 14 0 25 5 25
12 0 6 3 8 7 4 5 -4 -1 -14 -11 -22z m394 -24 c0 -5 -2 -10 -4 -10 -3 0 -8 5
-11 10 -3 6 -1 10 4 10 6 0 11 -4 11 -10z m97 -22 c-3 -7 -5 -2 -5 12 0 14 2
19 5 13 2 -7 2 -19 0 -25z m-139 -9 c-2 -6 -8 -10 -13 -10 -5 0 -11 4 -13 10
-2 6 4 11 13 11 9 0 15 -5 13 -11z m262 -4 c-7 -8 -17 -12 -23 -8 -6 4 -3 9 9
14 27 11 28 11 14 -6z m-611 -16 c-10 -6 -11 -9 -1 -9 6 0 12 -5 12 -12 0 -8
-6 -7 -16 4 -17 17 -10 43 8 32 6 -4 5 -10 -3 -15z m426 11 c3 -5 1 -10 -4
-10 -6 0 -11 5 -11 10 0 6 2 10 4 10 3 0 8 -4 11 -10z m-234 -27 c-12 -20 -14
-14 -5 12 4 9 9 14 11 11 3 -2 0 -13 -6 -23z m209 1 c16 -42 13 -56 -9 -44
-13 7 -19 20 -19 40 1 37 15 39 28 4z m-850 7 c0 -5 -7 -12 -16 -15 -24 -9
-28 -7 -14 9 14 17 30 20 30 6z m1050 -20 c0 -6 -4 -13 -10 -16 -5 -3 -10 1
-10 9 0 9 5 16 10 16 6 0 10 -4 10 -9z m-435 -32 c11 -17 -1 -21 -15 -4 -8 9
-8 15 -2 15 6 0 14 -5 17 -11z m-70 -9 c-3 -5 -10 -10 -16 -10 -5 0 -9 5 -9
10 0 6 7 10 16 10 8 0 12 -4 9 -10z m-828 -22 c-3 -8 -6 -5 -6 6 -1 11 2 17 5
13 3 -3 4 -12 1 -19z m902 -13 c-1 -5 2 -21 7 -35 4 -14 6 -27 5 -29 -2 -2 3
-8 11 -13 9 -6 5 -7 -11 -3 -21 6 -22 5 -10 -8 8 -8 17 -13 22 -10 4 2 7 -1 7
-7 0 -7 -7 -9 -16 -6 -9 3 -19 6 -24 6 -9 0 -22 58 -24 106 -1 28 1 30 16 20
10 -6 17 -15 17 -21z m249 5 c7 -11 8 -20 3 -20 -11 0 -9 -49 2 -51 8 -2 23
-5 35 -9 4 -1 -4 -5 -18 -9 -31 -10 -40 -5 -40 20 0 10 -4 19 -10 19 -5 0 -10
5 -10 11 0 5 6 7 13 3 6 -4 2 3 -10 15 -13 12 -23 26 -23 31 0 18 45 10 58
-10z m-1168 -5 c0 -9 6 -12 15 -9 11 5 15 0 14 -17 -1 -18 -3 -19 -6 -6 -2 9
-9 14 -15 11 -6 -4 -14 0 -19 7 -12 19 -11 29 1 29 6 0 10 -7 10 -15z m980 5
c0 -5 -4 -10 -10 -10 -5 0 -10 5 -10 10 0 6 5 10 10 10 6 0 10 -4 10 -10z m70
-51 c9 -22 10 -33 2 -41 -8 -8 -13 -3 -17 18 -4 16 -8 35 -11 42 -8 26 14 11
26 -19z m-1059 0 c11 -5 17 -15 13 -21 -4 -6 1 -8 15 -3 11 3 21 3 21 -2 0
-11 -40 -46 -40 -35 0 4 -4 13 -9 21 -7 11 -13 11 -32 0 -22 -11 -23 -11 -10
4 8 11 9 17 3 17 -6 0 -9 7 -6 15 7 18 18 19 45 4z m1209 -3 c0 -3 -4 -8 -10
-11 -5 -3 -10 -1 -10 4 0 6 5 11 10 11 6 0 10 -2 10 -4z m-1126 -51 c-4 -11
-2 -13 9 -10 10 4 17 -2 21 -18 3 -14 9 -32 12 -41 4 -11 1 -16 -11 -16 -12 0
-15 5 -11 18 5 14 4 14 -9 -2 -8 -11 -15 -14 -15 -7 0 7 -4 10 -8 7 -5 -3 -20
3 -35 13 l-27 18 24 26 c27 29 59 37 50 12z m90 -34 c3 -5 -1 -11 -9 -14 -9
-4 -12 -1 -8 9 6 16 10 17 17 5z m191 -51 c-4 -12 1 -25 14 -36 10 -9 17 -23
14 -30 -3 -8 -1 -14 5 -14 6 0 8 -10 4 -22 -5 -21 -4 -22 14 -8 15 11 16 11 7
0 -18 -19 -16 -33 3 -26 12 4 14 1 9 -14 -5 -15 -2 -20 12 -21 17 -1 17 -2 1
-6 -10 -2 -18 -9 -18 -14 0 -6 -4 -8 -9 -4 -5 3 -12 2 -15 -3 -2 -4 4 -9 15
-9 10 -1 19 2 19 6 0 4 7 8 15 8 8 0 15 -4 15 -9 0 -4 -7 -8 -15 -8 -8 0 -15
-4 -15 -10 0 -5 -8 -10 -17 -11 -16 0 -16 -1 1 -8 18 -7 18 -8 2 -14 -25 -10
-38 -9 -31 3 9 15 -8 12 -33 -6 -19 -13 -22 -13 -22 0 0 8 3 16 8 19 4 2 0 2
-8 0 -18 -5 -21 -6 -41 -4 -11 1 -16 9 -15 26 1 27 11 33 19 13 3 -7 3 4 2 24
-3 30 1 42 21 57 14 11 20 22 15 25 -5 3 -11 3 -14 -1 -2 -5 -2 -3 -1 4 6 23
-12 21 -35 -3 l-24 -25 28 7 c20 5 26 4 21 -5 -4 -6 -11 -9 -15 -7 -4 3 -17
-3 -29 -14 -12 -11 -23 -16 -26 -11 -3 5 1 12 10 15 9 4 14 9 11 12 -3 3 -15
1 -26 -6 -16 -8 -21 -8 -21 1 0 6 9 13 20 16 11 3 20 9 20 14 0 5 7 9 15 9 17
0 20 16 6 24 -5 4 -12 0 -14 -6 -4 -10 -6 -10 -6 -1 -1 7 8 18 19 25 11 7 20
21 20 31 0 10 10 22 23 27 37 15 49 12 42 -10z m-108 -42 c-3 -8 -6 -5 -6 6
-1 11 2 17 5 13 3 -3 4 -12 1 -19z m1003 -8 c0 -5 -4 -10 -10 -10 -5 0 -10 5
-10 10 0 6 5 10 10 10 6 0 10 -4 10 -10z m-671 -36 c5 4 12 2 16 -4 4 -6 10
-8 15 -5 14 9 18 -20 5 -39 -9 -12 -15 -14 -20 -5 -4 6 -1 16 6 21 11 8 10 9
-3 5 -9 -3 -18 -1 -20 5 -3 7 -12 9 -23 4 -15 -5 -16 -9 -6 -15 9 -6 10 -11 2
-15 -6 -4 -11 -3 -11 3 0 6 -8 7 -17 4 -12 -5 -10 0 6 16 12 12 19 27 14 34
-4 8 -1 7 10 -1 9 -8 21 -11 26 -8z m-339 -4 c0 -5 -4 -10 -9 -10 -5 0 -18 -3
-28 -6 -16 -5 -16 -4 1 10 23 18 36 20 36 6z m774 -17 c-5 -5 -12 -12 -15 -16
-3 -5 -9 -2 -12 7 -5 12 0 16 15 16 12 0 17 -3 12 -7z m25 -24 c-7 -4 -17 -5
-22 -2 -5 3 -3 9 4 14 7 4 17 5 22 2 5 -3 3 -9 -4 -14z m-439 -46 c0 -12 -6
-24 -12 -26 -10 -4 -10 -6 0 -6 13 -1 16 5 26 52 9 41 24 33 21 -13 -2 -37 10
-49 27 -25 5 6 8 3 8 -7 0 -9 -9 -20 -20 -23 -11 -4 -18 -10 -15 -15 3 -5 13
-6 22 -3 12 5 15 2 10 -10 -4 -11 -2 -14 9 -10 8 3 14 -1 14 -10 0 -9 -9 -19
-20 -22 -11 -3 -20 -12 -20 -18 0 -8 -3 -8 -9 1 -6 10 -10 9 -14 -7 -3 -12 -2
-19 3 -16 4 3 10 -1 13 -9 6 -16 -52 -20 -89 -5 -29 10 -51 48 -35 58 8 5 7
19 -3 49 -13 37 -13 42 -1 42 9 0 15 9 15 23 0 17 -2 19 -10 7 -5 -8 -12 -11
-17 -7 -9 10 18 28 33 23 6 -2 16 5 23 16 12 19 13 19 26 1 8 -10 15 -28 15
-40z m391 36 c11 -5 17 -14 14 -20 -4 -5 -1 -9 4 -9 6 0 11 5 11 11 0 5 5 7
11 3 8 -4 7 -9 -2 -15 -8 -4 -14 -14 -14 -20 0 -7 -6 -13 -13 -15 -7 -1 -8 0
-3 2 6 3 7 12 4 20 -5 13 -7 13 -14 2 -6 -9 -9 -9 -9 -1 0 6 5 15 11 19 8 4 3
12 -12 20 -13 7 -20 13 -16 14 5 0 17 -5 28 -11z m-711 -30 c0 -5 -9 -9 -20
-9 -17 0 -19 2 -8 14 13 14 28 12 28 -5z m380 1 c0 -5 -5 -10 -11 -10 -5 0 -7
5 -4 10 3 6 8 10 11 10 2 0 4 -4 4 -10z m790 -30 c0 -5 -4 -10 -10 -10 -5 0
-10 5 -10 10 0 6 5 10 10 10 6 0 10 -4 10 -10z m-320 -10 c0 -5 -2 -10 -4 -10
-3 0 -8 5 -11 10 -3 6 -1 10 4 10 6 0 11 -4 11 -10z m-49 -17 c13 -16 12 -17
-3 -4 -10 7 -18 15 -18 17 0 8 8 3 21 -13z m-615 -35 c4 -7 4 -10 0 -6 -5 4
-21 -7 -36 -23 -27 -30 -27 -30 -23 -6 4 20 22 36 50 46 1 1 5 -5 9 -11z m-97
-19 c-16 -10 -23 -4 -14 10 3 6 11 8 17 5 6 -4 5 -9 -3 -15z m25 -14 c-4 -8
-11 -12 -16 -9 -6 4 -5 10 3 15 19 12 19 11 13 -6z m56 -9 c0 -2 -7 -9 -15
-16 -13 -11 -14 -10 -9 4 5 14 24 23 24 12z m506 -21 c10 -8 15 -14 9 -14 -5
0 -19 6 -29 14 -11 8 -15 15 -10 15 6 0 19 -7 30 -15z m-499 -27 c-3 -8 -6 -5
-6 6 -1 11 2 17 5 13 3 -3 4 -12 1 -19z m588 -18 c3 -5 -1 -10 -9 -10 -9 0
-16 5 -16 10 0 6 4 10 9 10 6 0 13 -4 16 -10z"/>
<path d="M590 2500 c0 -5 4 -10 9 -10 5 0 11 -7 13 -17 3 -14 5 -14 18 2 9 11
10 16 2 11 -7 -4 -15 -1 -18 8 -7 18 -24 22 -24 6z"/>
<path d="M628 2503 c7 -3 16 -2 19 1 4 3 -2 6 -13 5 -11 0 -14 -3 -6 -6z"/>
<path d="M529 2405 c-1 -5 -2 -17 -3 -25 0 -8 -6 -14 -12 -13 -6 1 -11 -4 -11
-12 0 -8 4 -12 8 -9 4 2 10 -2 12 -8 3 -7 6 -4 6 8 1 11 5 24 11 30 6 6 6 15
0 24 -5 8 -10 11 -11 5z"/>
<path d="M549 2363 c-13 -16 -12 -17 4 -4 9 7 17 15 17 17 0 8 -8 3 -21 -13z"/>
<path d="M848 2398 c5 -5 16 -8 23 -6 8 3 3 7 -10 11 -17 4 -21 3 -13 -5z"/>
<path d="M945 2380 c-3 -5 -1 -10 4 -10 6 0 11 5 11 10 0 6 -2 10 -4 10 -3 0
-8 -4 -11 -10z"/>
<path d="M1123 2335 c-6 -7 -9 -16 -5 -21 4 -4 0 -5 -9 -1 -13 4 -15 -1 -13
-24 3 -21 0 -28 -8 -23 -7 4 -8 3 -4 -4 11 -18 13 -16 36 35 22 49 22 59 3 38z"/>
<path d="M920 2330 c-9 -6 -10 -10 -3 -10 6 0 15 5 18 10 8 12 4 12 -15 0z"/>
<path d="M790 2320 c0 -6 7 -10 15 -10 8 0 15 2 15 4 0 2 -7 6 -15 10 -8 3
-15 1 -15 -4z"/>
<path d="M874 2309 c-3 -5 3 -6 13 -2 16 6 17 5 3 -13 -11 -15 -11 -16 0 -6 8
6 37 12 65 13 60 1 50 6 -23 12 -29 2 -55 0 -58 -4z"/>
<path d="M837 2279 c7 -7 15 -10 18 -7 3 3 -2 9 -12 12 -14 6 -15 5 -6 -5z"/>
<path d="M1054 2270 c0 -13 4 -16 10 -10 7 7 7 13 0 20 -6 6 -10 3 -10 -10z"/>
<path d="M1001 2104 c0 -11 3 -14 6 -6 3 7 2 16 -1 19 -3 4 -6 -2 -5 -13z"/>
<path d="M1304 2262 c3 -6 0 -13 -6 -16 -7 -3 -2 -3 11 0 17 5 21 3 16 -6 -5
-9 -4 -11 3 -6 16 10 15 14 -9 27 -13 6 -19 7 -15 1z"/>
<path d="M1356 2229 c2 -4 -2 -9 -8 -12 -7 -2 2 -4 19 -5 18 0 35 3 38 8 3 4
-5 6 -17 2 -12 -3 -19 -1 -15 5 3 5 0 10 -8 10 -8 0 -12 -4 -9 -8z"/>
<path d="M1149 2191 c-24 -20 -24 -20 -2 -14 12 3 28 11 34 19 17 21 -5 17
-32 -5z"/>
<path d="M1270 2196 c0 -2 9 -6 20 -9 11 -3 20 -1 20 4 0 5 -9 9 -20 9 -11 0
-20 -2 -20 -4z"/>
<path d="M1470 2180 c0 -5 5 -10 11 -10 5 0 7 5 4 10 -3 6 -8 10 -11 10 -2 0
-4 -4 -4 -10z"/>
<path d="M1190 2161 c0 -6 4 -13 10 -16 6 -3 7 1 4 9 -7 18 -14 21 -14 7z"/>
<path d="M1297 2149 c7 -7 15 -10 18 -7 3 3 -2 9 -12 12 -14 6 -15 5 -6 -5z"/>
<path d="M1140 2136 c0 -2 7 -7 16 -10 8 -3 12 -2 9 4 -6 10 -25 14 -25 6z"/>
<path d="M1651 2114 c0 -11 3 -14 6 -6 3 7 2 16 -1 19 -3 4 -6 -2 -5 -13z"/>
<path d="M1590 2086 c0 -2 11 -6 25 -8 13 -3 22 -1 19 3 -5 9 -44 13 -44 5z"/>
<path d="M1731 2044 c0 -11 3 -14 6 -6 3 7 2 16 -1 19 -3 4 -6 -2 -5 -13z"/>
<path d="M1766 2052 c-2 -4 4 -13 15 -20 22 -14 25 -7 5 14 -8 8 -17 11 -20 6z"/>
<path d="M1706 2041 c-3 -5 2 -15 12 -22 15 -12 16 -12 5 2 -7 9 -10 19 -6 22
3 4 4 7 0 7 -3 0 -8 -4 -11 -9z"/>
<path d="M1745 2019 c-4 -6 -4 -13 -1 -16 3 -4 6 -1 6 6 0 7 5 9 10 6 6 -3 10
-1 10 4 0 14 -17 14 -25 0z"/>
<path d="M1795 1979 c-4 -6 -5 -12 -2 -15 2 -3 7 2 10 11 7 17 1 20 -8 4z"/>
<path d="M1842 1940 c0 -14 2 -19 5 -12 2 6 2 18 0 25 -3 6 -5 1 -5 -13z"/>
<path d="M1700 1921 c0 -6 4 -13 10 -16 6 -3 7 1 4 9 -7 18 -14 21 -14 7z"/>
<path d="M1597 1839 c7 -7 15 -10 18 -7 3 3 -2 9 -12 12 -14 6 -15 5 -6 -5z"/>
<path d="M1558 1833 c7 -3 16 -2 19 1 4 3 -2 6 -13 5 -11 0 -14 -3 -6 -6z"/>
<path d="M1200 1841 c0 -5 5 -13 10 -16 6 -3 10 -2 10 4 0 5 -4 13 -10 16 -5
3 -10 2 -10 -4z"/>
<path d="M1248 1834 c6 -3 9 -11 6 -16 -4 -7 -2 -8 4 -4 7 4 12 2 12 -4 0 -6
5 -8 10 -5 6 3 10 1 10 -6 0 -7 2 -10 5 -7 12 12 -12 43 -35 45 -14 1 -19 -1
-12 -3z"/>
<path d="M1446 1763 c-6 -14 -5 -15 5 -6 7 7 10 15 7 18 -3 3 -9 -2 -12 -12z"/>
<path d="M1495 1730 c3 -5 11 -10 16 -10 6 0 7 5 4 10 -3 6 -11 10 -16 10 -6
0 -7 -4 -4 -10z"/>
<path d="M1583 1705 c7 -7 14 -9 15 -4 2 5 8 7 13 3 5 -3 9 -1 9 4 0 5 -11 10
-24 10 -19 0 -22 -3 -13 -13z"/>
<path d="M1538 1703 c7 -3 16 -2 19 1 4 3 -2 6 -13 5 -11 0 -14 -3 -6 -6z"/>
<path d="M1730 1649 c0 -5 5 -7 10 -4 6 3 10 8 10 11 0 2 -4 4 -10 4 -5 0 -10
-5 -10 -11z"/>
<path d="M1671 1514 c0 -11 3 -14 6 -6 3 7 2 16 -1 19 -3 4 -6 -2 -5 -13z"/>
<path d="M1834 1579 c-3 -6 -2 -15 3 -20 5 -5 9 -1 9 11 0 23 -2 24 -12 9z"/>
<path d="M1796 1541 c-3 -5 0 -11 7 -14 8 -3 14 1 14 9 0 16 -13 19 -21 5z"/>
<path d="M2000 1476 c0 -2 8 -10 18 -17 15 -13 16 -12 3 4 -13 16 -21 21 -21
13z"/>
<path d="M2055 1473 c3 -7 1 -13 -4 -13 -6 0 -11 -10 -11 -22 0 -20 1 -20 13
-4 11 16 13 15 15 -10 1 -20 -2 -25 -13 -20 -8 3 -15 1 -15 -5 0 -17 -28 -40
-33 -29 -3 6 -4 5 -3 -2 2 -7 10 -12 18 -10 12 2 14 -5 10 -25 -2 -16 -2 -25
2 -22 4 4 8 21 8 38 1 36 16 50 30 30 8 -12 9 -11 5 1 -2 8 -1 24 3 36 6 14 2
28 -12 45 -11 13 -17 18 -13 12z"/>
<path d="M1855 1329 c-4 -6 -5 -12 -2 -15 2 -3 7 2 10 11 7 17 1 20 -8 4z"/>
<path d="M2006 1293 c-6 -14 -5 -15 5 -6 7 7 10 15 7 18 -3 3 -9 -2 -12 -12z"/>
<path d="M2199 1383 c-12 -16 -12 -17 2 -6 9 7 19 10 22 6 4 -3 7 -1 7 5 0 17
-16 15 -31 -5z"/>
<path d="M2150 1275 c-7 -9 -8 -15 -2 -15 5 0 12 7 16 15 3 8 4 15 2 15 -2 0
-9 -7 -16 -15z"/>
<path d="M1025 520 c3 -5 11 -10 16 -10 6 0 7 5 4 10 -3 6 -11 10 -16 10 -6 0
-7 -4 -4 -10z"/>
<path d="M152 451 c-11 -6 -10 -11 3 -25 20 -20 25 -20 25 0 0 9 -5 12 -12 8
-8 -5 -9 -2 -5 9 7 19 7 20 -11 8z"/>
<path d="M420 378 c0 -3 5 -19 11 -36 9 -27 13 -30 29 -20 10 6 16 18 13 25
-3 8 -8 11 -11 8 -3 -3 -14 2 -24 12 -10 9 -18 14 -18 11z"/>
<path d="M406 341 c-4 -7 -5 -15 -2 -18 9 -9 19 4 14 18 -4 11 -6 11 -12 0z"/>
<path d="M505 220 c-3 -5 -1 -10 4 -10 6 0 11 5 11 10 0 6 -2 10 -4 10 -3 0
-8 -4 -11 -10z"/>
<path d="M485 170 c-3 -5 -1 -10 4 -10 6 0 11 5 11 10 0 6 -2 10 -4 10 -3 0
-8 -4 -11 -10z"/>
<path d="M420 159 c0 -5 5 -7 10 -4 6 3 10 8 10 11 0 2 -4 4 -10 4 -5 0 -10
-5 -10 -11z"/>
<path d="M727 140 c3 -11 7 -20 9 -20 2 0 4 9 4 20 0 11 -4 20 -9 20 -5 0 -7
-9 -4 -20z"/>
<path d="M1216 2543 c-3 -8 -1 -11 4 -8 6 3 7 -1 4 -9 -3 -9 -9 -14 -13 -11
-4 2 -5 -10 -3 -27 4 -24 2 -29 -9 -23 -11 7 -12 6 -2 -7 7 -8 10 -18 6 -22
-15 -15 59 -1 75 14 10 9 26 22 37 28 11 6 15 12 8 12 -6 0 -25 -12 -42 -26
-20 -16 -29 -20 -25 -10 3 9 10 16 15 16 5 0 8 6 7 13 -2 6 4 11 13 9 11 -1
16 4 15 15 -1 14 5 17 24 15 20 -2 22 -1 10 7 -8 6 -11 11 -6 11 5 0 18 -7 28
-17 10 -9 18 -11 18 -5 0 6 8 9 18 6 14 -5 14 -4 2 4 -8 6 -17 9 -21 6 -4 -2
-10 0 -14 6 -9 15 38 12 54 -2 11 -10 13 -10 7 0 -5 8 0 12 16 12 17 0 19 -3
9 -9 -9 -6 -10 -11 -2 -15 6 -4 9 -11 6 -16 -3 -5 0 -14 7 -22 7 -7 14 -20 16
-28 2 -8 11 -22 19 -30 13 -12 13 -9 -1 14 -16 26 -16 28 -2 23 9 -4 16 -2 16
4 0 6 4 8 9 5 5 -3 11 0 14 7 3 7 -5 13 -19 13 -13 1 -21 -2 -18 -7 3 -5 -3
-6 -12 -2 -13 5 -14 8 -5 11 11 4 11 6 0 13 -8 4 -14 16 -14 26 0 16 -12 18
-122 19 -96 1 -123 -2 -127 -13z"/>
<path d="M1520 2545 c14 -8 19 -14 12 -15 -7 0 -10 -6 -7 -12 4 -7 -1 -4 -10
7 l-17 20 4 -20 c4 -20 17 -23 53 -10 14 5 16 4 6 -3 -9 -7 -10 -12 -2 -16 6
-4 11 -2 11 4 0 7 7 10 15 6 8 -3 15 -2 15 3 0 5 -11 12 -25 15 -14 4 -25 12
-25 18 0 9 3 9 12 0 7 -7 19 -12 28 -12 29 1 -24 24 -60 27 -35 2 -35 2 -10
-12z"/>
<path d="M1596 2552 c6 -4 14 -14 17 -22 4 -10 6 -8 6 8 1 15 -5 22 -16 22
-11 0 -14 -3 -7 -8z"/>
<path d="M1310 2509 c0 -5 10 -9 23 -9 12 0 37 -9 55 -20 17 -11 32 -17 32
-14 0 4 8 0 18 -7 15 -13 16 -12 3 3 -7 10 -17 16 -21 13 -5 -3 -11 -1 -15 5
-3 5 -1 10 5 10 6 0 8 5 5 10 -3 6 -11 10 -16 10 -6 0 -7 -5 -3 -12 5 -8 2 -9
-12 -4 -44 18 -74 24 -74 15z"/>
<path d="M1586 2482 c6 -4 13 -14 16 -22 3 -10 6 -8 10 8 5 18 2 22 -15 22
-13 0 -17 -3 -11 -8z"/>
<path d="M1540 2472 c0 -5 7 -9 15 -9 8 0 15 4 15 9 0 4 -7 8 -15 8 -8 0 -15
-4 -15 -8z"/>
<path d="M1530 2446 c0 -2 7 -6 15 -10 8 -3 15 -1 15 4 0 6 -7 10 -15 10 -8 0
-15 -2 -15 -4z"/>
<path d="M1340 2391 c0 -5 7 -12 16 -15 14 -5 15 -4 4 9 -14 17 -20 19 -20 6z"/>
<path d="M1720 2310 c-18 -12 -2 -12 25 0 13 6 15 9 5 9 -8 0 -22 -4 -30 -9z"/>
<path d="M374 2159 c-3 -6 -1 -16 6 -22 10 -9 12 -8 6 7 -5 14 -2 17 9 12 8
-3 15 -1 15 4 0 14 -27 13 -36 -1z"/>
<path d="M138 1983 c7 -3 16 -2 19 1 4 3 -2 6 -13 5 -11 0 -14 -3 -6 -6z"/>
<path d="M770 1980 c0 -5 5 -10 11 -10 5 0 7 5 4 10 -3 6 -8 10 -11 10 -2 0
-4 -4 -4 -10z"/>
<path d="M845 1970 c3 -5 8 -10 11 -10 2 0 4 5 4 10 0 6 -5 10 -11 10 -5 0 -7
-4 -4 -10z"/>
<path d="M820 1939 c0 -5 5 -7 10 -4 6 3 10 8 10 11 0 2 -4 4 -10 4 -5 0 -10
-5 -10 -11z"/>
<path d="M890 1916 c0 -2 9 -6 20 -9 11 -3 18 -1 14 4 -5 9 -34 13 -34 5z"/>
<path d="M30 1890 c0 -5 5 -10 11 -10 5 0 7 5 4 10 -3 6 -8 10 -11 10 -2 0 -4
-4 -4 -10z"/>
<path d="M48 1863 c7 -3 16 -2 19 1 4 3 -2 6 -13 5 -11 0 -14 -3 -6 -6z"/>
<path d="M880 1849 c0 -5 5 -7 10 -4 6 3 10 8 10 11 0 2 -4 4 -10 4 -5 0 -10
-5 -10 -11z"/>
<path d="M918 1853 c7 -3 16 -2 19 1 4 3 -2 6 -13 5 -11 0 -14 -3 -6 -6z"/>
<path d="M5 1840 c3 -5 10 -10 16 -10 5 0 9 5 9 10 0 6 -7 10 -16 10 -8 0 -12
-4 -9 -10z"/>
<path d="M955 1759 c6 -9 45 -8 45 2 0 4 -11 7 -25 7 -13 0 -22 -4 -20 -9z"/>
<path d="M570 1740 c0 -5 5 -10 11 -10 5 0 7 5 4 10 -3 6 -8 10 -11 10 -2 0
-4 -4 -4 -10z"/>
<path d="M894 1738 c-8 -13 23 -38 45 -37 13 1 13 2 -1 6 -9 2 -15 10 -12 17
6 17 -23 29 -32 14z m21 -8 c3 -5 1 -10 -4 -10 -6 0 -11 5 -11 10 0 6 2 10 4
10 3 0 8 -4 11 -10z"/>
<path d="M1010 1480 c0 -11 5 -20 11 -20 5 0 7 5 3 12 -5 7 -2 9 7 6 44 -18
50 -18 21 1 -40 26 -42 26 -42 1z"/>
<path d="M1010 1445 c0 -8 61 -37 67 -31 3 2 -9 12 -26 20 -31 17 -41 19 -41
11z"/>
<path d="M990 1370 c0 -5 8 -10 18 -10 10 0 22 -4 28 -9 5 -5 20 -12 34 -16
15 -4 8 4 -19 19 -46 28 -61 32 -61 16z"/>
<path d="M1040 1375 c0 -9 44 -23 54 -17 5 3 1 9 -10 13 -23 9 -44 11 -44 4z"/>
<path d="M980 1230 c8 -5 22 -9 30 -9 10 0 8 3 -5 9 -27 12 -43 12 -25 0z"/>
<path d="M858 1213 c7 -3 16 -2 19 1 4 3 -2 6 -13 5 -11 0 -14 -3 -6 -6z"/>
<path d="M970 1206 c28 -17 60 -22 45 -7 -6 5 -23 12 -40 16 l-30 6 25 -15z"/>
<path d="M968 1179 c13 -5 21 -13 18 -17 -3 -5 6 -7 21 -4 l25 5 -32 13 c-18
8 -37 14 -44 13 -6 0 -1 -4 12 -10z"/>
<path d="M1925 1149 c-4 -6 -5 -12 -2 -15 2 -3 7 2 10 11 7 17 1 20 -8 4z"/>
<path d="M1951 1144 c0 -11 3 -14 6 -6 3 7 2 16 -1 19 -3 4 -6 -2 -5 -13z"/>
<path d="M955 1130 c3 -5 8 -10 11 -10 2 0 4 5 4 10 0 6 -5 10 -11 10 -5 0 -7
-4 -4 -10z"/>
<path d="M1048 1133 c7 -3 16 -2 19 1 4 3 -2 6 -13 5 -11 0 -14 -3 -6 -6z"/>
<path d="M984 1122 c4 -7 15 -12 24 -12 13 0 14 -2 3 -9 -10 -7 -10 -10 -1
-16 7 -4 16 -1 21 6 13 20 11 29 -5 29 -8 0 -22 3 -32 7 -12 4 -15 3 -10 -5z"/>
<path d="M1945 1110 c-3 -5 -3 -21 1 -35 4 -18 13 -25 30 -25 35 0 46 -29 27
-70 -28 -64 -47 -100 -53 -100 -3 0 -16 7 -29 17 -23 15 -25 15 -38 -3 -12
-16 -10 -20 14 -32 42 -22 64 -44 59 -59 -4 -10 -1 -11 11 -4 12 6 26 5 45 -5
26 -13 29 -13 35 3 4 9 2 18 -4 20 -5 2 -18 10 -28 17 -17 13 -17 17 14 95 18
44 35 81 37 81 15 0 74 -66 74 -83 0 -15 3 -18 11 -10 19 19 -33 86 -91 116
-28 15 -60 27 -70 27 -22 0 -35 17 -18 22 6 2 9 12 5 21 -7 19 -23 22 -32 7z"/>
<path d="M948 1103 c7 -3 16 -2 19 1 4 3 -2 6 -13 5 -11 0 -14 -3 -6 -6z"/>
<path d="M930 1080 c8 -5 24 -10 35 -10 17 0 17 2 5 10 -8 5 -24 10 -35 10
-17 0 -17 -2 -5 -10z"/>
<path d="M923 1056 c3 -8 1 -17 -6 -20 -7 -2 -1 -5 11 -5 15 -1 26 -9 29 -20
5 -20 33 -38 33 -21 0 6 -4 10 -9 10 -14 0 -20 38 -7 43 6 2 0 2 -12 0 -13 -2
-21 0 -18 6 3 5 -1 12 -10 15 -11 4 -15 2 -11 -8z"/>
<path d="M997 1064 c7 -3 9 -13 6 -22 -4 -15 -3 -15 6 -2 15 22 14 30 -6 29
-10 0 -13 -3 -6 -5z"/>
<path d="M1713 1036 c7 -14 18 -26 25 -26 6 0 12 -4 12 -10 0 -5 7 -10 15 -10
9 0 25 -16 36 -35 12 -19 25 -35 30 -35 5 0 0 15 -11 33 -32 52 -34 59 -21 81
11 19 10 19 -8 -1 -24 -28 -41 -29 -41 -3 0 11 -4 20 -9 20 -5 0 -16 3 -25 6
-13 5 -13 2 -3 -20z"/>
<path d="M1858 1053 c7 -3 16 -2 19 1 4 3 -2 6 -13 5 -11 0 -14 -3 -6 -6z"/>
<path d="M1900 1000 c6 -45 15 -70 23 -59 9 12 -6 109 -17 109 -9 0 -11 -14
-6 -50z"/>
<path d="M2174 1016 c4 -11 2 -22 -4 -26 -12 -7 -3 -40 11 -40 5 0 9 9 9 20 0
12 7 20 18 20 15 1 14 2 -3 12 -11 6 -24 16 -28 22 -5 7 -6 3 -3 -8z"/>
<path d="M1005 1003 c15 -15 15 -17 1 -25 -9 -5 -16 -14 -16 -20 0 -6 12 2 26
17 20 22 23 30 12 36 -25 16 -41 11 -23 -8z"/>
<path d="M928 1003 c7 -3 16 -2 19 1 4 3 -2 6 -13 5 -11 0 -14 -3 -6 -6z"/>
<path d="M1050 999 c0 -5 5 -7 10 -4 6 3 10 8 10 11 0 2 -4 4 -10 4 -5 0 -10
-5 -10 -11z"/>
<path d="M943 966 c-10 -11 -9 -16 5 -21 9 -3 13 -3 9 1 -4 4 -2 13 4 21 15
17 -2 16 -18 -1z"/>
<path d="M1030 960 c-6 -11 -7 -20 -2 -20 6 0 12 9 15 20 3 11 3 20 1 20 -2 0
-8 -9 -14 -20z"/>
<path d="M888 953 c6 -2 18 -2 25 0 6 3 1 5 -13 5 -14 0 -19 -2 -12 -5z"/>
<path d="M970 940 c0 -5 5 -10 11 -10 5 0 7 5 4 10 -3 6 -8 10 -11 10 -2 0 -4
-4 -4 -10z"/>
<path d="M898 923 c6 -2 18 -2 25 0 6 3 1 5 -13 5 -14 0 -19 -2 -12 -5z"/>
<path d="M855 902 c-7 -20 -8 -19 26 -26 17 -3 28 -10 24 -15 -5 -8 9 -9 60
-1 18 3 -50 29 -80 31 -30 2 -30 2 5 8 l35 7 -32 5 c-22 4 -34 1 -38 -9z"/>
<path d="M964 912 c4 -7 2 -12 -3 -12 -6 0 -11 -4 -11 -10 0 -5 10 -10 23 -9
12 0 16 3 9 6 -6 2 -10 9 -7 13 3 5 0 12 -6 16 -8 4 -9 3 -5 -4z"/>
<path d="M2230 913 c0 -15 19 -37 26 -31 3 4 -1 14 -10 23 -9 9 -16 13 -16 8z"/>
<path d="M2093 886 c-31 -20 -42 -36 -25 -36 14 0 74 48 65 52 -4 3 -22 -5
-40 -16z"/>
<path d="M1050 890 c0 -6 7 -10 15 -10 8 0 15 2 15 4 0 2 -7 6 -15 10 -8 3
-15 1 -15 -4z"/>
<path d="M1690 892 c0 -11 78 -47 85 -40 7 7 -32 33 -62 42 -13 4 -23 3 -23
-2z"/>
<path d="M868 863 c7 -3 16 -2 19 1 4 3 -2 6 -13 5 -11 0 -14 -3 -6 -6z"/>
<path d="M1810 857 c0 -16 62 -67 104 -85 23 -10 26 -15 16 -27 -10 -13 -10
-14 1 -10 10 3 26 -20 53 -74 22 -44 44 -77 49 -74 6 3 7 1 3 -6 -4 -6 2 -23
13 -37 12 -15 21 -33 21 -40 0 -18 20 -18 48 2 12 8 23 13 23 10 1 -3 2 -10 3
-15 0 -6 6 -15 13 -22 10 -10 14 -9 19 5 6 17 -4 30 -30 39 -5 2 3 15 17 29
14 15 29 38 33 52 3 14 9 26 13 26 3 0 6 15 7 33 l1 32 -15 -37 -14 -36 -34
20 c-19 11 -34 26 -34 33 0 7 -10 15 -22 18 -22 6 -38 -6 -38 -30 0 -14 39
-38 47 -29 11 10 63 -25 63 -42 0 -10 -18 -36 -40 -57 -22 -21 -40 -35 -40
-29 0 5 6 16 13 23 10 10 9 11 -5 6 -12 -5 -21 2 -34 27 -9 18 -27 46 -40 61
-13 16 -24 34 -24 40 0 7 -11 29 -25 49 -14 20 -25 44 -25 52 0 9 -6 16 -13
16 -7 0 -37 20 -66 45 -58 49 -61 51 -61 32z"/>
<path d="M970 840 c-6 -11 -16 -17 -26 -13 -9 3 -14 0 -12 -8 2 -8 -3 -13 -9
-11 -16 3 -17 -10 -1 -26 16 -16 31 -15 25 2 -3 8 1 13 11 12 9 0 16 5 14 12
-1 7 2 22 8 32 6 11 8 20 6 20 -3 0 -10 -9 -16 -20z"/>
<path d="M1550 834 c-11 -27 -13 -51 -5 -42 8 8 25 68 19 68 -2 0 -9 -12 -14
-26z"/>
<path d="M850 846 c0 -2 9 -6 20 -9 11 -3 20 -1 20 4 0 5 -9 9 -20 9 -11 0
-20 -2 -20 -4z"/>
<path d="M844 808 c-7 -10 15 -9 41 2 17 7 16 8 -8 7 -16 -1 -31 -5 -33 -9z"/>
<path d="M1614 809 c-11 -18 14 -35 29 -20 10 11 9 13 -5 8 -20 -7 -25 9 -5
16 9 4 9 6 0 6 -6 1 -15 -4 -19 -10z"/>
<path d="M1 687 c1 -64 6 -117 11 -117 4 0 8 4 8 10 0 5 11 12 25 16 14 3 25
10 25 16 0 5 -5 6 -11 3 -6 -5 -6 2 2 16 7 13 15 31 19 39 4 8 15 14 24 14 9
-1 16 5 16 13 0 12 3 13 15 3 8 -6 20 -10 27 -7 8 3 6 6 -5 6 -10 1 -15 6 -12
11 3 6 0 10 -8 10 -21 0 -41 26 -27 35 6 4 9 2 8 -3 -2 -6 0 -10 5 -11 41 -6
26 23 -21 37 -28 9 -38 9 -44 -1 -6 -9 -8 -9 -8 2 0 7 -6 11 -14 8 -7 -3 -19
0 -25 6 -9 9 -11 -18 -10 -106z m58 0 c-9 -7 -14 -17 -12 -24 4 -12 -15 -29
-23 -20 -3 2 -2 16 1 30 5 17 12 24 21 20 8 -3 14 1 14 8 0 7 3 9 7 5 5 -4 1
-13 -8 -19z"/>
<path d="M810 790 c0 -5 7 -10 16 -10 8 0 12 5 9 10 -3 6 -10 10 -16 10 -5 0
-9 -4 -9 -10z"/>
<path d="M2100 764 c0 -10 12 -14 41 -14 28 0 39 4 37 13 -6 18 -78 19 -78 1z"/>
<path d="M2195 771 c-3 -5 -1 -12 5 -16 5 -3 10 1 10 9 0 18 -6 21 -15 7z"/>
<path d="M1677 763 c-17 -16 -4 -24 35 -21 55 4 64 28 11 28 -22 0 -43 -3 -46
-7z"/>
<path d="M172 725 c1 -10 9 -20 16 -21 7 -1 8 0 2 3 -5 2 -8 9 -5 13 3 5 0 12
-6 15 -7 5 -10 1 -7 -10z"/>
<path d="M956 723 c-6 -14 -5 -15 5 -6 7 7 10 15 7 18 -3 3 -9 -2 -12 -12z"/>
<path d="M1834 709 c-7 -12 12 -29 34 -29 6 0 12 -4 12 -8 0 -9 62 -34 68 -27
12 11 -10 34 -52 53 -53 25 -53 25 -62 11z"/>
<path d="M626 683 c-6 -14 -5 -15 5 -6 7 7 10 15 7 18 -3 3 -9 -2 -12 -12z"/>
<path d="M935 690 c-3 -5 1 -10 10 -10 9 0 13 5 10 10 -3 6 -8 10 -10 10 -2 0
-7 -4 -10 -10z"/>
<path d="M200 681 c0 -6 4 -13 10 -16 6 -3 7 1 4 9 -7 18 -14 21 -14 7z"/>
<path d="M1740 643 c-33 -23 -42 -42 -17 -35 19 6 67 43 67 53 0 14 -11 10
-50 -18z"/>
<path d="M220 640 c0 -5 5 -10 11 -10 5 0 7 5 4 10 -3 6 -8 10 -11 10 -2 0 -4
-4 -4 -10z"/>
<path d="M213 593 c0 -15 2 -22 4 -15 3 6 9 12 15 12 6 0 8 -7 4 -15 -7 -19 1
-19 19 -2 8 9 10 19 4 28 -7 12 -9 12 -9 0 0 -11 -4 -10 -19 3 -18 16 -18 16
-18 -11z"/>
<path d="M1839 580 c-18 -39 -32 -90 -24 -90 9 0 46 92 43 108 -2 12 -8 6 -19
-18z"/>
<path d="M1940 512 c-3 -34 -2 -62 2 -62 3 0 15 -3 25 -7 16 -6 16 -5 4 10
-11 14 -11 17 0 17 9 0 8 4 -4 13 -9 6 -17 30 -19 52 -3 33 -4 29 -8 -23z"/>
<path d="M1697 546 c-7 -17 18 -42 27 -27 7 11 -3 41 -14 41 -4 0 -10 -6 -13
-14z"/>
<path d="M1767 519 c12 -12 24 -21 27 -18 2 2 -8 13 -22 23 l-27 19 22 -24z"/>
<path d="M1850 466 c14 -8 36 -15 50 -15 23 1 22 2 -5 9 -16 4 -39 11 -50 14
-13 5 -12 2 5 -8z"/>
<path d="M2000 460 c-13 -9 -13 -10 0 -10 8 0 22 5 30 10 13 9 13 10 0 10 -8
0 -22 -5 -30 -10z"/>
<path d="M1495 425 c11 -9 29 -21 40 -26 l20 -10 -20 16 c-11 9 -29 21 -40 26
l-20 10 20 -16z"/>
<path d="M1924 426 c-6 -17 2 -36 17 -36 12 0 12 37 -1 45 -6 3 -13 -1 -16 -9z"/>
<path d="M1626 406 c19 -15 18 -16 -7 -41 -23 -23 -30 -25 -48 -16 -11 7 -21
16 -21 21 0 6 -7 10 -15 10 -24 0 -18 -14 14 -33 34 -20 58 -22 64 -4 4 10 7
10 18 0 7 -7 18 -13 24 -13 5 0 2 5 -8 11 -16 9 -16 12 -3 31 14 19 13 23 -2
34 -9 8 -21 14 -26 14 -6 0 -1 -7 10 -14z"/>
<path d="M2055 400 c-17 -8 -17 -9 7 -7 15 1 24 5 22 9 -3 4 -6 8 -7 7 -1 0
-11 -4 -22 -9z"/>
<path d="M2000 374 c0 -8 5 -12 10 -9 6 3 10 10 10 16 0 5 -4 9 -10 9 -5 0
-10 -7 -10 -16z"/>
<path d="M1500 340 c0 -5 10 -12 23 -16 12 -4 25 -11 28 -17 4 -5 12 -6 19 -2
7 4 8 11 3 16 -14 14 -73 29 -73 19z"/>
<path d="M1476 322 c-6 -10 2 -18 49 -44 18 -10 36 -13 44 -9 10 6 8 10 -6 16
-10 5 -22 7 -27 6 -5 -1 -19 8 -31 19 -13 12 -26 17 -29 12z"/>
<path d="M1705 306 c17 -14 34 -26 38 -26 5 0 5 -5 2 -10 -4 -6 -12 -7 -18 -4
-7 4 -1 -5 13 -21 14 -16 19 -25 13 -21 -7 4 -27 9 -45 11 l-33 4 24 -18 c14
-11 31 -17 38 -14 7 3 13 0 13 -6 0 -5 10 -15 23 -21 21 -10 21 -10 3 4 -18
14 -17 15 8 22 14 3 26 13 26 20 0 12 5 12 33 -1 32 -16 32 -16 10 3 -20 18
-20 20 -5 35 15 16 15 18 -3 32 -11 8 -24 14 -30 14 -5 0 -1 -6 9 -14 19 -15
19 -15 -4 -40 -27 -29 -30 -30 -56 -11 -18 14 -18 15 9 36 15 12 27 27 27 33
0 6 -10 2 -21 -10 l-22 -21 -41 24 -41 25 30 -25z"/>
<path d="M1660 300 c8 -5 20 -10 25 -10 6 0 3 5 -5 10 -8 5 -19 10 -25 10 -5
0 -3 -5 5 -10z"/>
<path d="M7 293 c-11 -11 -8 -33 5 -33 6 0 8 3 5 7 -4 3 -2 12 4 20 11 13 -2
19 -14 6z"/>
<path d="M1592 258 c2 -7 -3 -12 -9 -10 -7 1 -13 -2 -13 -8 0 -14 28 -12 32 2
3 8 13 6 31 -9 14 -11 23 -23 20 -27 -3 -3 -1 -6 5 -6 7 0 12 -9 12 -19 0 -16
7 -19 40 -18 22 1 38 7 36 12 -2 6 -9 9 -16 7 -7 -1 -19 6 -29 16 -24 27 -112
76 -109 60z"/>
<path d="M18 249 c-7 -4 -9 -11 -5 -15 3 -4 13 -2 21 5 11 9 15 9 19 -1 4 -10
8 -9 21 3 16 14 15 16 -13 16 -17 0 -36 -4 -43 -8z"/>
<path d="M1210 253 c0 -5 5 -15 11 -23 9 -13 10 -13 6 2 -3 9 -1 19 6 22 7 2
4 5 -5 5 -10 1 -18 -2 -18 -6z"/>
<path d="M1257 249 c7 -7 15 -10 18 -7 3 3 -2 9 -12 12 -14 6 -15 5 -6 -5z"/>
<path d="M77 226 c-17 -13 -17 -14 0 -20 10 -4 14 -4 10 0 -4 4 -2 13 4 21 14
17 9 16 -14 -1z"/>
<path d="M1240 229 c0 -5 9 -9 20 -9 11 0 20 2 20 4 0 2 -9 6 -20 9 -11 3 -20
1 -20 -4z"/>
<path d="M1490 192 c0 -6 -6 -10 -12 -8 -7 1 -9 1 -5 -2 4 -2 3 -10 -4 -18
-10 -12 -9 -13 4 -8 16 6 31 33 22 42 -3 3 -5 0 -5 -6z"/>
<path d="M1275 160 c-3 -5 1 -10 10 -10 9 0 13 5 10 10 -3 6 -8 10 -10 10 -2
0 -7 -4 -10 -10z"/>
<path d="M1360 130 c8 -5 20 -10 25 -10 6 0 3 5 -5 10 -8 5 -19 10 -25 10 -5
0 -3 -5 5 -10z"/>
<path d="M1408 123 c6 -2 18 -2 25 0 6 3 1 5 -13 5 -14 0 -19 -2 -12 -5z"/>
<path d="M1450 110 c-9 -6 -10 -10 -3 -10 6 0 15 5 18 10 8 12 4 12 -15 0z"/>
<path d="M1621 94 c0 -11 3 -14 6 -6 3 7 2 16 -1 19 -3 4 -6 -2 -5 -13z"/>
<path d="M1322 91 c-11 -7 -10 -9 3 -14 9 -4 13 -3 10 3 -9 14 8 12 25 -2 12
-11 12 -10 1 5 -15 19 -20 20 -39 8z"/>
<path d="M1750 90 c0 -5 5 -10 11 -10 5 0 7 5 4 10 -3 6 -8 10 -11 10 -2 0 -4
-4 -4 -10z"/>
<path d="M100 79 c0 -5 5 -7 10 -4 6 3 10 8 10 11 0 2 -4 4 -10 4 -5 0 -10 -5
-10 -11z"/>
<path d="M1710 80 c-9 -6 -10 -10 -3 -10 6 0 15 5 18 10 8 12 4 12 -15 0z"/>
<path d="M1715 56 c-19 -14 -19 -15 5 -10 21 5 22 4 10 -6 -13 -10 -13 -11 3
-6 20 6 22 -4 5 -24 -11 -12 -10 -12 6 0 10 8 25 15 33 16 21 3 24 9 17 28 -6
16 -8 16 -24 1 -17 -15 -19 -15 -27 -1 -8 14 -11 14 -28 2z"/>
<path d="M1595 50 c3 -5 8 -10 11 -10 2 0 4 5 4 10 0 6 -5 10 -11 10 -5 0 -7
-4 -4 -10z"/>
</g>
</svg>
